<?xml version="1.0" encoding="UTF-8" standalone="no"?>
<!-- Created with Inkscape (http://www.inkscape.org/) -->
<svg
   xmlns:dc="http://purl.org/dc/elements/1.1/"
   xmlns:cc="http://web.resource.org/cc/"
   xmlns:rdf="http://www.w3.org/1999/02/22-rdf-syntax-ns#"
   xmlns:svg="http://www.w3.org/2000/svg"
   xmlns="http://www.w3.org/2000/svg"
   xmlns:sodipodi="http://inkscape.sourceforge.net/DTD/sodipodi-0.dtd"
   xmlns:inkscape="http://www.inkscape.org/namespaces/inkscape"
   width="778pt"
   height="375pt"
   id="svg2"
   sodipodi:version="0.32"
   inkscape:version="0.43"
   version="1.0"
   sodipodi:docbase="C:\Documents and Settings\Owner\My Documents\signbin"
   sodipodi:docname="Oklahoma_county_map.svg">
  <defs
     id="defs4" />
  <sodipodi:namedview
     id="base"
     pagecolor="#ffffff"
     bordercolor="#666666"
     borderopacity="1.0"
     inkscape:pageopacity="0.0"
     inkscape:pageshadow="2"
     inkscape:zoom="0.7"
     inkscape:cx="430.6727"
     inkscape:cy="189.40245"
     inkscape:document-units="px"
     inkscape:current-layer="layer1"
     inkscape:window-width="1024"
     inkscape:window-height="749"
     inkscape:window-x="-4"
     inkscape:window-y="-4" />
  <metadata
     id="metadata7">
    <rdf:RDF>
      <cc:Work
         rdf:about="">
        <dc:format>image/svg+xml</dc:format>
        <dc:type
           rdf:resource="http://purl.org/dc/dcmitype/StillImage" />
      </cc:Work>
    </rdf:RDF>
  </metadata>
  <g
     inkscape:label="Layer 1"
     inkscape:groupmode="layer"
     id="layer1">
    <path
       style="fill:#ffffff;fill-opacity:1;fill-rule:evenodd;stroke:#000000;stroke-width:1.6;stroke-linecap:butt;stroke-linejoin:miter;stroke-miterlimit:4;stroke-dasharray:none;stroke-opacity:1"
       d="M 668.27944,77.337313 C 668.27944,77.337313 676.03576,82.686158 678.95031,81.811798 C 681.86486,80.937438 695.85461,64.32459 697.02041,65.781858 C 698.18625,67.239127 704.0153,84.143427 705.76401,85.017786 C 707.51276,85.892147 722.37687,88.223775 722.95978,89.681044 C 723.54267,91.138309 719.46233,100.46482 720.62817,101.63063 C 721.79397,102.79644 730.24611,97.258834 730.24611,97.258834 C 730.24611,97.258834 736.94957,106.00243 743.94442,108.91696 C 750.93931,111.8315 756.47693,113.58021 756.47693,113.58021 L 756.47693,120.5751 L 694.1059,120.5751 L 694.1059,110.37423 L 680.99048,110.37423 L 680.99048,98.133195 L 668.45801,98.133195 L 668.27944,77.337313 z "
       id="path4960"
       sodipodi:nodetypes="cssssscscccccccc" />
    <path
       style="fill:#ffffff;fill-opacity:1;fill-rule:evenodd;stroke:#000000;stroke-width:1.6;stroke-linecap:butt;stroke-linejoin:miter;stroke-miterlimit:4;stroke-dasharray:none;stroke-opacity:1"
       d="M 779.4191,313.21301 L 778.59477,260.86647 L 849.90144,234.69321 L 849.90144,257.77515 L 861.44243,257.77515 L 861.44243,275.70486 L 844.33706,275.70486 L 844.33706,335.47059 L 801.88279,335.47059 L 801.88279,322.89917 L 779.83129,322.89917 L 779.4191,313.21301 z "
       id="path13791" />
    <path
       style="fill:#ffffff;fill-opacity:1;fill-rule:evenodd;stroke:#000000;stroke-width:1.6;stroke-linecap:butt;stroke-linejoin:miter;stroke-miterlimit:4;stroke-dasharray:none;stroke-opacity:1"
       d="M 715.67345,192.12692 L 764.63763,192.12692 L 764.63763,205.82524 L 776.29577,205.82524 L 776.29577,228.55861 L 789.11973,228.55861 L 789.11973,241.38256 L 736.36663,241.38256 L 736.36663,217.48338 L 716.4021,231.32741 L 715.67345,192.12692 z "
       id="path11999"
       sodipodi:nodetypes="ccccccccccc" />
    <rect
       style="fill:#ffffff;fill-opacity:1;stroke:#000000;stroke-width:1.6;stroke-linecap:butt;stroke-miterlimit:4;stroke-dasharray:none;stroke-dashoffset:0;stroke-opacity:1"
       id="rect1400"
       width="110.46355"
       height="60.177906"
       x="8.6472902"
       y="5.1103759" />
    <rect
       y="5.1103759"
       x="119.11085"
       height="60.177906"
       width="110.46355"
       id="rect1402"
       style="fill:#ffffff;fill-opacity:1;stroke:#000000;stroke-width:1.6;stroke-linecap:butt;stroke-miterlimit:4;stroke-dasharray:none;stroke-dashoffset:0;stroke-opacity:1" />
    <rect
       style="fill:#ffffff;fill-opacity:1;stroke:#000000;stroke-width:1.6;stroke-linecap:butt;stroke-miterlimit:4;stroke-dasharray:none;stroke-dashoffset:0;stroke-opacity:1"
       id="rect1404"
       width="110.46355"
       height="60.177906"
       x="227.9257"
       y="5.1103759" />
    <path
       style="fill:#ffffff;fill-opacity:1;fill-rule:evenodd;stroke:#000000;stroke-width:1.6;stroke-linecap:butt;stroke-linejoin:miter;stroke-miterlimit:4;stroke-dasharray:none;stroke-opacity:1"
       d="M 338.38925,156.37949 C 338.38925,156.37949 344.57191,155.14296 348.28151,148.54811 C 351.99111,141.95328 355.28851,135.77062 356.93724,139.06803 C 358.58592,142.36546 357.7616,162.14997 373.42433,162.97432 C 389.08708,163.79869 391.14795,144.42635 396.09408,142.36546 C 401.04022,140.30457 406.81072,140.71675 406.81072,140.71675 L 406.81072,119.60279 L 382.49222,119.60279 L 382.49222,61.166511 L 338.49229,61.166511 L 338.38925,156.37949 z "
       id="path1406"
       sodipodi:nodetypes="csssscccccc" />
    <path
       style="fill:#ffffff;fill-opacity:1;fill-rule:evenodd;stroke:#000000;stroke-width:1.6;stroke-linecap:butt;stroke-linejoin:miter;stroke-miterlimit:4;stroke-dasharray:none;stroke-opacity:1"
       d="M 338.53264,61.118604 L 416.93364,61.118604 L 416.93364,31.973255 C 416.93364,31.973255 410.52168,24.104013 407.31567,17.400585 C 404.10968,10.697153 404.55069,5.0413684 404.55069,5.0413684 L 338.2412,5.0413684 L 338.53264,61.118604 z "
       id="path1408"
       sodipodi:nodetypes="cccsccc" />
    <rect
       style="fill:#ffffff;fill-opacity:1;stroke:#000000;stroke-width:1.6;stroke-linecap:butt;stroke-miterlimit:4;stroke-dasharray:none;stroke-dashoffset:0;stroke-opacity:1"
       id="rect1410"
       width="74.612083"
       height="56.250523"
       x="548.08771"
       y="5.1595383" />
    <rect
       style="fill:#ffffff;fill-opacity:1;stroke:#000000;stroke-width:1.6;stroke-linecap:butt;stroke-miterlimit:4;stroke-dasharray:none;stroke-dashoffset:0;stroke-opacity:1"
       id="rect1412"
       width="74.612083"
       height="59.165054"
       x="548.08771"
       y="60.621059" />
    <rect
       style="fill:#ffffff;fill-opacity:1;stroke:#000000;stroke-width:1.6;stroke-linecap:butt;stroke-miterlimit:4;stroke-dasharray:none;stroke-dashoffset:0;stroke-opacity:1"
       id="rect1414"
       width="60.50293"
       height="48.466618"
       x="597.79022"
       y="182.27788" />
    <rect
       style="fill:#ffffff;fill-opacity:1;stroke:#000000;stroke-width:1.6;stroke-linecap:butt;stroke-miterlimit:4;stroke-dasharray:none;stroke-dashoffset:0;stroke-opacity:1"
       id="rect1416"
       width="57.707787"
       height="65.868484"
       x="658.25714"
       y="152.63498" />
    <rect
       style="fill:#ffffff;fill-opacity:1;stroke:#000000;stroke-width:1.6;stroke-linecap:butt;stroke-miterlimit:4;stroke-dasharray:none;stroke-dashoffset:0;stroke-opacity:1"
       id="rect1418"
       width="59.735485"
       height="62.67532"
       x="537.88678"
       y="119.83496" />
    <rect
       style="fill:#ffffff;fill-opacity:1;stroke:#000000;stroke-width:1.6;stroke-linecap:butt;stroke-miterlimit:4;stroke-dasharray:none;stroke-dashoffset:0;stroke-opacity:1"
       id="rect1420"
       width="65.431305"
       height="57.124882"
       x="544.59027"
       y="324.00961" />
    <rect
       style="fill:#ffffff;fill-opacity:1;stroke:#000000;stroke-width:1.60000002;stroke-linecap:butt;stroke-miterlimit:4;stroke-dasharray:none;stroke-dashoffset:0;stroke-opacity:1"
       id="rect1422"
       width="85.356949"
       height="49.616051"
       x="407.02423"
       y="119.48713" />
    <rect
       y="168.95636"
       x="407.02423"
       height="48.96418"
       width="85.104408"
       id="rect1426"
       style="fill:#ffffff;fill-opacity:1;stroke:#000000;stroke-width:1.6;stroke-linecap:butt;stroke-miterlimit:4;stroke-dasharray:none;stroke-dashoffset:0;stroke-opacity:1" />
    <rect
       style="fill:#ffffff;fill-opacity:1;stroke:#000000;stroke-width:1.6;stroke-linecap:butt;stroke-miterlimit:4;stroke-dasharray:none;stroke-dashoffset:0;stroke-opacity:1"
       id="rect1428"
       width="85.104408"
       height="48.96418"
       x="407.02423"
       y="217.92056" />
    <path
       style="fill:#ffffff;fill-opacity:1;fill-rule:evenodd;stroke:#000000;stroke-width:1.6;stroke-linecap:butt;stroke-linejoin:miter;stroke-miterlimit:4;stroke-dasharray:none;stroke-opacity:1"
       d="M 416.93364,35.179244 L 435.00377,35.179244 C 435.00377,35.179244 443.16446,45.380115 447.24481,51.792093 C 451.32516,58.204067 453.89591,63.312163 453.89591,63.312163 L 453.89591,119.70074 L 382.54214,119.70074 L 382.39642,61.118604 L 416.78791,61.118604 L 416.93364,35.179244 z "
       id="path1430"
       sodipodi:nodetypes="ccscccccc" />
    <path
       style="fill:#ffffff;fill-opacity:1;fill-rule:evenodd;stroke:#000000;stroke-width:1.6;stroke-linecap:butt;stroke-linejoin:miter;stroke-miterlimit:4;stroke-dasharray:none;stroke-opacity:1"
       d="M 404.10968,5.4509898 C 404.10968,5.4509898 406.73276,17.692035 409.35584,22.063839 C 411.97892,26.435642 417.51653,32.847615 417.51653,32.847615 L 417.51653,35.179244 L 434.7123,35.179244 C 434.7123,35.179244 446.66188,49.751919 448.99353,54.123719 C 451.32516,58.495521 453.94824,63.450229 453.94824,63.450229 L 453.94824,74.525461 L 469.1038,74.525461 C 469.1038,74.525461 470.85254,80.354533 476.97306,82.977612 C 483.09359,85.600696 490.67137,91.138309 494.16883,91.429764 C 497.66623,91.721219 502.32952,85.892147 502.32952,85.892147 L 502.32952,5.1595351 L 404.10968,5.4509898 z "
       id="path1432"
       sodipodi:nodetypes="cscccscccssccc" />
    <rect
       style="fill:#ffffff;fill-opacity:1;stroke:#000000;stroke-width:1.6;stroke-linecap:butt;stroke-miterlimit:4;stroke-dasharray:none;stroke-dashoffset:0;stroke-opacity:1"
       id="rect1434"
       width="46.341103"
       height="75.813614"
       x="501.74658"
       y="5.1416845" />
    <path
       style="fill:#ffffff;fill-opacity:1;fill-rule:evenodd;stroke:#000000;stroke-width:1.6;stroke-linecap:butt;stroke-linejoin:miter;stroke-miterlimit:4;stroke-dasharray:none;stroke-opacity:1"
       d="M 453.65677,73.942555 L 469.68673,73.942555 C 469.68673,73.942555 471.14397,80.645984 482.80212,86.475056 C 494.46026,92.304124 496.209,92.01267 499.41497,89.38959 C 502.62096,86.76651 501.59705,80.86718 501.59705,80.86718 L 547.94197,80.86718 L 547.94197,119.82147 L 453.65677,119.6952 L 453.65677,73.942555 z "
       id="path1436"
       sodipodi:nodetypes="ccssccccc" />
    <path
       style="fill:#ffffff;fill-opacity:1;fill-rule:evenodd;stroke:#000000;stroke-width:1.6;stroke-linecap:butt;stroke-linejoin:miter;stroke-miterlimit:4;stroke-dasharray:none;stroke-opacity:1"
       d="M 492.13142,119.84143 L 537.88313,119.84143 L 537.88313,182.4924 L 525.10564,182.4924 L 525.10564,205.98651 L 492.5436,205.98651 L 492.13142,119.84143 z "
       id="path1438" />
    <path
       style="fill:#ffffff;fill-opacity:1;fill-rule:evenodd;stroke:#000000;stroke-width:1.6;stroke-linecap:butt;stroke-linejoin:miter;stroke-miterlimit:4;stroke-dasharray:none;stroke-opacity:1"
       d="M 338.41193,156.13242 L 338.41193,222.0009 L 384.58231,222.0009 L 384.58231,207.42823 L 407.02423,207.42823 L 407.02423,140.10249 C 407.02423,140.10249 397.40626,139.51958 394.49172,143.01701 C 391.57717,146.51446 387.20539,163.1273 375.25578,162.83586 C 363.3062,162.5444 359.80876,155.54952 358.93438,150.59481 C 358.06005,145.6401 357.47715,135.43923 355.1455,138.0623 C 352.81386,140.68539 347.27627,152.63498 343.77883,154.67516 C 340.28138,156.71533 338.99483,157.29824 338.41193,156.13242 z "
       id="path2314"
       sodipodi:nodetypes="ccccccsssssc" />
    <path
       style="fill:#ffffff;fill-opacity:1;fill-rule:evenodd;stroke:#000000;stroke-width:1.6;stroke-linecap:butt;stroke-linejoin:miter;stroke-miterlimit:4;stroke-dasharray:none;stroke-opacity:1"
       d="M 492.33753,206.04687 L 525.51781,206.04687 L 525.51781,231.60188 L 550.24844,231.60188 L 550.24844,299.81723 L 492.33753,299.81723 L 492.33753,206.04687 z "
       id="path3191"
       sodipodi:nodetypes="ccccccc" />
    <path
       style="fill:#ffffff;fill-opacity:1;fill-rule:evenodd;stroke:#000000;stroke-width:1.6;stroke-linecap:butt;stroke-linejoin:miter;stroke-miterlimit:4;stroke-dasharray:none;stroke-opacity:1"
       d="M 338.18317,221.9157 L 384.7592,221.9157 L 384.7592,207.07731 L 407.01679,207.07731 L 407.01679,263.9578 L 357.7616,263.9578 L 357.7616,275.70486 L 338.18314,275.70486 L 338.18317,221.9157 z "
       id="path3193"
       sodipodi:nodetypes="ccccccccc" />
    <path
       style="fill:#ffffff;fill-opacity:1;fill-rule:evenodd;stroke:#000000;stroke-width:1.6;stroke-linecap:butt;stroke-linejoin:miter;stroke-miterlimit:4;stroke-dasharray:none;stroke-opacity:1"
       d="M 597.63478,119.84647 L 632.60921,119.84647 L 632.60921,144.47429 C 632.60921,144.47429 638.43826,143.59993 641.06137,145.05719 C 643.68445,146.51446 645.43315,149.72044 648.05623,150.88626 C 650.67931,152.05207 658.54857,152.05207 658.54857,152.05207 L 658.54857,182.36324 L 597.63478,182.36324 L 597.63478,119.84647 z "
       id="path3195"
       sodipodi:nodetypes="cccsscccc" />
    <path
       style="fill:#ffffff;fill-opacity:1;fill-rule:evenodd;stroke:#000000;stroke-width:1.6;stroke-linecap:butt;stroke-linejoin:miter;stroke-miterlimit:4;stroke-dasharray:none;stroke-opacity:1"
       d="M 622.55406,5.1595351 L 700.95504,5.1595351 L 700.80932,35.470699 C 700.80932,35.470699 695.98936,39.735959 691.19798,41.019802 C 686.40661,42.303647 683.61356,48.003196 680.11612,49.169009 C 676.61867,50.334824 673.41269,46.837385 670.20671,47.711744 C 667.0007,48.586104 663.21182,52.666453 664.08619,54.415172 C 664.96052,56.163893 666.97998,60.535695 666.97998,60.535695 L 622.69977,60.535695 L 622.55406,5.1595351 z "
       id="path3197"
       sodipodi:nodetypes="cccssssccc" />
    <path
       style="fill:#ffffff;fill-opacity:1;fill-rule:evenodd;stroke:#000000;stroke-width:1.6;stroke-linecap:butt;stroke-linejoin:miter;stroke-miterlimit:4;stroke-dasharray:none;stroke-opacity:1"
       d="M 622.6998,60.244241 L 665.98061,60.244241 C 665.98061,60.244241 666.4178,64.616044 670.20671,64.907498 C 673.99559,65.198953 673.41269,61.410055 678.07595,61.992964 C 682.73919,62.575869 685.65373,64.616044 683.61356,66.364764 C 681.57339,68.113487 670.20671,71.902381 671.08105,74.525461 C 671.95542,77.148544 668.02078,77.585722 668.02078,77.585722 L 668.02078,97.550283 L 681.28192,97.550283 L 681.28192,110.66569 L 657.6742,110.66569 L 657.6742,123.48964 L 632.31774,123.48964 L 632.31774,119.99219 L 622.40833,119.99219 L 622.6998,60.244241 z "
       id="path3199"
       sodipodi:nodetypes="ccsssscccccccccc" />
    <path
       style="fill:#ffffff;fill-opacity:1;fill-rule:evenodd;stroke:#000000;stroke-width:1.6;stroke-linecap:butt;stroke-linejoin:miter;stroke-miterlimit:4;stroke-dasharray:none;stroke-opacity:1"
       d="M 700.69321,5.1103753 L 700.69321,36.023684 C 700.69321,36.023684 690.59488,40.145459 688.3279,42.206346 C 686.06092,44.267232 681.3209,50.243806 679.46607,50.243806 C 677.61127,50.243806 673.4895,46.946385 670.60426,47.770739 C 667.71904,48.595097 664.00942,51.274251 664.00942,53.541224 C 664.00942,55.8082 667.30686,63.433484 668.74948,64.876106 C 670.19209,66.318728 673.69561,62.403039 675.75648,62.196952 C 677.81737,61.990862 684.82438,63.845661 684.20613,65.288283 C 683.58787,66.730905 671.42863,71.264855 671.01645,73.325743 C 670.60426,75.38663 671.63471,77.035339 670.19209,77.447516 C 668.74948,77.859694 674.10779,80.744937 674.10779,80.744937 C 674.10779,80.744937 678.43564,83.218 681.52697,81.569291 C 684.6183,79.920582 694.71665,64.257838 697.39581,65.906547 C 700.07496,67.555259 702.96019,82.805824 705.22717,84.454536 C 707.49414,86.103245 723.77516,87.339776 723.15691,90.843284 C 722.53861,94.346794 719.0351,98.880745 720.68383,100.94163 C 722.33254,103.00251 729.95783,97.438127 729.95783,97.438127 C 729.95783,97.438127 732.84307,103.00251 738.81963,106.29993 C 744.7962,109.59735 756.54327,113.30694 756.54327,113.30694 L 756.54327,120.31396 L 785.60178,120.31396 L 785.60178,4.6981975 L 700.69321,5.1103753 z "
       id="path3201"
       sodipodi:nodetypes="ccssssssssscssssscsccccc" />
    <path
       style="fill:#ffffff;fill-opacity:1;fill-rule:evenodd;stroke:#000000;stroke-width:1.6;stroke-linecap:butt;stroke-linejoin:miter;stroke-miterlimit:4;stroke-dasharray:none;stroke-opacity:1"
       d="M 597.63481,230.74451 L 597.63481,238.61375 C 597.63481,238.61375 609.29292,241.23684 617.45361,253.47789 C 625.61432,265.71893 634.06648,270.96509 634.94085,276.79416 C 635.81518,282.62323 636.68956,284.37195 641.9357,286.99503 C 647.18189,289.61812 657.96566,290.49247 657.96566,290.49247 L 657.96566,231.03596 L 597.63481,230.74451 z "
       id="path4077" />
    <path
       style="fill:#ffffff;fill-opacity:1;fill-rule:evenodd;stroke:#000000;stroke-width:1.6;stroke-linecap:butt;stroke-linejoin:miter;stroke-miterlimit:4;stroke-dasharray:none;stroke-opacity:1"
       d="M 597.92624,238.90521 L 597.92624,300.53328 L 681.57339,300.53328 L 681.75196,284.87067 C 681.75196,284.87067 675.1614,292.53264 671.66398,292.53264 C 668.16654,292.53264 658.2571,290.49247 658.2571,290.49247 C 658.2571,290.49247 638.29255,286.8493 637.70964,283.64332 C 637.12674,280.43733 635.23228,274.17107 632.60921,271.25655 C 629.98613,268.34201 615.67742,250.58318 613.37327,247.35736 C 609.7301,242.25692 598.21771,238.90521 597.92624,238.90521 z "
       id="path4079"
       sodipodi:nodetypes="ccccscsssc" />
    <path
       style="fill:#ffffff;fill-opacity:1;fill-rule:evenodd;stroke:#000000;stroke-width:1.6;stroke-linecap:butt;stroke-linejoin:miter;stroke-miterlimit:4;stroke-dasharray:none;stroke-opacity:1"
       d="M 550.12787,231.61887 C 550.12787,231.61887 565.28345,231.32742 568.7809,231.61887 C 572.27835,231.91032 578.40922,232.92006 583.65537,234.66877 C 588.90152,236.41749 597.84085,238.09121 597.84085,238.09121 L 597.92624,323.8639 L 550.12787,323.8639 L 550.12787,231.61887 z "
       id="path4081"
       sodipodi:nodetypes="csscccc" />
    <path
       style="fill:#ffffff;fill-opacity:1;fill-rule:evenodd;stroke:#000000;stroke-width:1.6;stroke-linecap:butt;stroke-linejoin:miter;stroke-miterlimit:4;stroke-dasharray:none;stroke-opacity:1"
       d="M 338.18317,275.49877 L 338.18317,337.94365 C 338.18317,337.94365 342.51102,336.50103 344.57191,339.18019 C 346.63278,341.85935 349.72413,346.18719 349.72413,346.18719 L 371.36346,346.18719 L 371.36346,312.38866 L 363.73817,312.38866 L 363.73817,286.42148 L 345.19018,286.42148 L 345.19018,275.70486 L 338.18317,275.49877 z "
       id="path4083" />
    <path
       style="fill:#ffffff;fill-opacity:1;fill-rule:evenodd;stroke:#000000;stroke-width:1.6;stroke-linecap:butt;stroke-linejoin:miter;stroke-miterlimit:4;stroke-dasharray:none;stroke-opacity:1"
       d="M 694.51057,110.62779 L 694.51057,120.93223 L 715.53161,120.93223 L 715.53161,153.90643 L 658.65113,153.90643 C 658.65113,153.90643 649.17104,152.25772 646.69796,150.19683 C 644.22491,148.13594 640.10314,143.18981 638.04224,143.60199 C 635.98137,144.01416 632.27178,145.2507 632.27178,145.2507 L 632.27178,122.99312 L 657.82677,122.99312 L 657.82677,110.62779 L 694.51057,110.62779 z "
       id="path4958"
       sodipodi:nodetypes="cccccssccccc" />
    <path
       style="fill:#ffffff;fill-opacity:1;fill-rule:evenodd;stroke:#000000;stroke-width:1.6;stroke-linecap:butt;stroke-linejoin:miter;stroke-miterlimit:4;stroke-dasharray:none;stroke-opacity:1"
       d="M 597.92624,300.11043 L 681.57339,300.11043 L 681.57339,330.13014 L 658.84,330.13014 C 658.84,330.13014 651.55367,332.75322 653.01095,335.37629 C 654.46822,337.9994 658.2571,349.07461 658.2571,349.07461 L 610.16728,349.07461 L 610.16728,324.00961 L 597.63478,324.00961 L 597.92624,300.11043 z "
       id="path4962"
       sodipodi:nodetypes="ccccsccccc" />
    <path
       style="fill:#ffffff;fill-opacity:1;fill-rule:evenodd;stroke:#000000;stroke-width:1.6;stroke-linecap:butt;stroke-linejoin:miter;stroke-miterlimit:4;stroke-dasharray:none;stroke-opacity:1"
       d="M 655.76587,331.14272 C 652.46846,334.02798 652.67453,334.23406 653.705,337.11929 C 654.73544,340.00455 658.65113,349.07245 658.65113,349.07245 L 635.157,349.07245 L 635.157,366.38391 L 668.33729,366.38391 C 668.33729,366.38391 669.36773,367.00216 670.19209,368.65089 C 671.01645,370.29957 670.19209,373.18483 670.19209,373.18483 L 687.70965,373.18483 L 687.70965,349.06208 L 694.71665,349.06208 L 694.71665,336.08886 L 681.52697,336.08886 L 681.52697,330.31836 L 658.8572,330.31836 L 655.76587,331.14272 z "
       id="path6710"
       sodipodi:nodetypes="csccccsccccccccc" />
    <path
       style="fill:#ffffff;fill-opacity:1;fill-rule:evenodd;stroke:#000000;stroke-width:1.6;stroke-linecap:butt;stroke-linejoin:miter;stroke-miterlimit:4;stroke-dasharray:none;stroke-opacity:1"
       d="M 345.64828,275.9198 L 358.18076,275.9198 L 357.76858,263.67875 L 406.73276,263.67875 L 406.73276,266.88474 C 406.73276,266.88474 408.4815,271.548 409.93874,274.75398 C 411.39601,277.95998 409.64731,288.16084 411.39601,289.61812 C 413.14475,291.07538 414.89346,294.57282 414.60203,296.613 C 414.31056,298.65316 414.01909,306.81385 414.01909,306.81385 L 400.61224,306.81385 C 400.61224,306.81385 399.15497,308.56259 397.69769,312.35148 C 396.24046,316.14039 396.5319,317.59766 396.5319,317.59766 L 371.29618,317.59766 L 371.29618,312.35148 L 364.59275,312.35148 L 364.59275,286.41212 L 345.93971,286.41212 L 345.64828,275.9198 z "
       id="path6712"
       sodipodi:nodetypes="cccccsssccsccccccc" />
    <path
       style="fill:#ffffff;fill-opacity:1;fill-rule:evenodd;stroke:#000000;stroke-width:1.6;stroke-linecap:butt;stroke-linejoin:miter;stroke-miterlimit:4;stroke-dasharray:none;stroke-opacity:1"
       d="M 414.02379,303.11468 L 422.88563,303.11468 C 422.88563,303.11468 426.38914,297.55026 428.65612,300.8477 C 430.92309,304.14511 427.62565,313.41909 428.86219,317.54086 C 430.09874,321.66264 436.48748,322.89917 436.48748,322.89917 L 436.48748,336.08886 L 427.00739,336.08886 C 427.00739,336.08886 424.53434,339.79844 422.26737,348.86635 C 420.00039,357.93426 418.55775,368.2387 418.55775,368.2387 C 418.55775,368.2387 407.01679,353.19423 403.92546,355.46121 C 400.83411,357.72818 403.71937,365.97172 397.5367,365.97172 C 391.35406,365.97172 388.6749,358.55254 384.14095,358.96469 C 379.607,359.37687 376.51566,366.38391 371.56953,365.76562 C 366.6234,365.14736 350.13631,346.3933 350.13631,346.3933 L 371.36346,346.3933 L 371.36346,317.33479 L 396.30016,317.33479 C 396.30016,317.33479 397.33063,313.41909 399.18543,310.12168 C 401.04022,306.82426 401.65848,306.61816 401.65848,306.61816 L 414.43597,306.61816 L 414.02379,303.11468 z "
       id="path6714" />
    <path
       style="fill:#ffffff;fill-opacity:1;fill-rule:evenodd;stroke:#000000;stroke-width:1.6;stroke-linecap:butt;stroke-linejoin:miter;stroke-miterlimit:4;stroke-dasharray:none;stroke-opacity:1"
       d="M 407.01679,266.84304 L 492.33753,266.84304 L 492.33753,300.22942 L 465.546,300.22942 L 465.546,335.88278 L 445.76146,335.88278 L 445.76146,328.87575 L 436.48748,328.87575 L 436.48748,322.48699 C 436.48748,322.48699 428.65612,320.22002 428.45001,317.33479 C 428.24394,314.44953 431.12917,302.29031 428.65612,301.05377 C 426.18303,299.81723 422.88563,303.11468 422.88563,303.11468 L 414.02379,303.11468 C 414.02379,303.11468 415.46644,297.13808 413.81772,293.63458 C 412.169,290.13107 410.93248,289.10063 410.93248,286.21539 C 410.93248,283.33014 411.13856,275.0866 410.10812,273.85006 C 409.07769,272.61353 407.01679,266.22478 407.01679,266.84304 z "
       id="path6716" />
    <path
       style="fill:#ffffff;fill-opacity:1;fill-rule:evenodd;stroke:#000000;stroke-width:1.6;stroke-linecap:butt;stroke-linejoin:miter;stroke-miterlimit:4;stroke-dasharray:none;stroke-opacity:1"
       d="M 418.35167,367.20827 C 418.35167,367.20827 422.06126,385.13798 425.56478,389.05367 C 429.0683,392.96934 445.55539,387.61103 447.61626,389.05367 C 449.67716,390.49629 455.24154,396.88503 461.8364,398.32765 C 468.43123,399.77027 472.34692,401.83117 475.43826,401.41898 C 478.52956,401.0068 481.41482,398.32765 483.88787,397.91547 C 486.36096,397.50329 489.45227,397.91547 489.45227,397.91547 L 489.45227,372.15437 L 484.30006,372.15437 L 484.30006,348.86635 L 465.75207,348.86635 L 465.75207,335.88278 L 445.34928,335.88278 L 445.34928,328.66967 L 436.48748,328.66967 L 436.48748,336.07576 L 427.00739,336.07576 C 427.00739,336.07576 422.47344,347.01155 421.03083,352.98812 C 419.58821,358.96469 418.55775,367.20827 418.35167,367.20827 z "
       id="path6718"
       sodipodi:nodetypes="cssssscccccccccccsc" />
    <path
       style="fill:#ffffff;fill-opacity:1;fill-rule:evenodd;stroke:#000000;stroke-width:1.6;stroke-linecap:butt;stroke-linejoin:miter;stroke-miterlimit:4;stroke-dasharray:none;stroke-opacity:1"
       d="M 465.89782,300.11046 L 550.1102,299.81899 L 550.21326,324.00961 L 544.00735,324.00961 L 544.00735,349.36608 C 544.00735,349.36608 536.72102,346.743 532.93214,350.53189 C 529.14322,354.3208 522.73126,357.66256 513.40473,359.41129 C 504.07822,361.16001 484.84229,362.19003 484.84229,362.19003 L 484.84229,349.07461 L 465.60638,349.07461 L 465.89782,300.11046 z "
       id="path7593"
       sodipodi:nodetypes="cccccsscccc" />
    <path
       style="fill:#ffffff;fill-opacity:1;fill-rule:evenodd;stroke:#000000;stroke-width:1.6;stroke-linecap:butt;stroke-linejoin:miter;stroke-miterlimit:4;stroke-dasharray:none;stroke-opacity:1"
       d="M 484.25939,362.19003 L 484.25939,372.09943 L 489.79701,372.09943 L 489.79701,397.74736 C 489.79701,397.74736 502.91242,412.32002 506.7013,411.15421 C 510.49021,409.98841 517.19364,396.29009 520.69109,398.33026 C 524.1885,400.37044 528.26885,401.2448 533.80647,401.53624 C 539.34409,401.82771 544.59024,401.53624 544.59024,401.53624 L 544.59024,348.78318 C 544.59024,348.78318 539.92699,346.1601 535.84664,348.20028 C 531.7663,350.24045 527.97742,355.77803 513.40473,358.69258 C 498.83208,361.60713 483.96795,362.19003 484.25939,362.19003 z "
       id="path7595" />
    <path
       style="fill:#ffffff;fill-opacity:1;fill-rule:evenodd;stroke:#000000;stroke-width:1.6;stroke-linecap:butt;stroke-linejoin:miter;stroke-miterlimit:4;stroke-dasharray:none;stroke-opacity:1"
       d="M 525.35434,182.36324 L 597.92624,182.36324 L 597.72017,238.40767 C 597.72017,238.40767 589.76554,235.69922 584.51939,235.40777 C 579.27321,235.11632 571.69544,230.74451 569.07234,231.32742 C 566.44926,231.91032 525.50005,231.32742 525.50005,231.32742 L 525.35434,182.36324 z "
       id="path3189"
       sodipodi:nodetypes="cccsscc" />
    <path
       style="fill:#ffffff;fill-opacity:1;fill-rule:evenodd;stroke:#000000;stroke-width:1.6;stroke-linecap:butt;stroke-linejoin:miter;stroke-miterlimit:4;stroke-dasharray:none;stroke-opacity:1"
       d="M 544.736,400.95334 C 544.736,400.95334 548.08769,401.82771 548.37916,403.86788 C 548.67063,405.90805 546.63045,414.65165 549.25352,416.69183 C 551.8766,418.73201 564.70056,414.94309 565.57492,417.27473 C 566.44926,419.60637 560.6202,432.13886 564.70056,436.2192 C 568.7809,440.29955 576.65013,440.00811 579.27324,437.96794 C 581.89632,435.92777 594.13737,418.44054 597.63481,420.18928 C 601.13222,421.93798 609.92583,431.00237 609.92583,431.00237 L 610.13194,380.84306 L 544.59024,380.84306 L 544.736,400.95334 z "
       id="path8488"
       sodipodi:nodetypes="csssssscccc" />
    <path
       style="fill:#ffffff;fill-opacity:1;fill-rule:evenodd;stroke:#000000;stroke-width:1.6;stroke-linecap:butt;stroke-linejoin:miter;stroke-miterlimit:4;stroke-dasharray:none;stroke-opacity:1"
       d="M 610.16728,349.07461 L 635.23228,349.07461 L 635.23228,366.27038 L 668.45797,366.27038 C 668.45797,366.27038 670.78962,368.60202 670.49815,370.35072 C 670.20671,372.09943 669.62381,373.28142 669.62381,373.28142 L 680.99048,373.28142 L 680.99048,394.54134 L 676.91014,394.54134 L 676.91014,409.11404 L 610.16728,409.25975 L 610.16728,349.07461 z "
       id="path8490"
       sodipodi:nodetypes="ccccsccccccc" />
    <path
       style="fill:#ffffff;fill-opacity:1;fill-rule:evenodd;stroke:#000000;stroke-width:1.6;stroke-linecap:butt;stroke-linejoin:miter;stroke-miterlimit:4;stroke-dasharray:none;stroke-opacity:1"
       d="M 610.22027,431.30186 C 610.22027,431.30186 618.66991,427.59223 620.93689,430.06532 C 623.20387,432.53837 619.70036,441.4002 624.0282,443.04889 C 628.35608,444.69761 635.157,439.75148 638.66053,438.10279 C 642.16401,436.45407 649.99541,428.4166 653.08671,431.30186 C 656.17805,434.18709 651.23191,445.31587 652.46846,448.20113 C 653.705,451.08636 658.23895,458.50555 661.12418,457.47511 C 664.00942,456.44468 663.59726,444.28544 667.10075,441.4002 C 670.60426,438.51494 676.58084,435.21753 676.99302,431.71401 L 681.93915,425.32526 L 681.93915,417.08171 L 676.99302,417.08171 L 676.99302,409.04428 L 610.22027,409.04428 L 610.22027,431.30186 z "
       id="path10238"
       sodipodi:nodetypes="csssssssscccccc" />
    <path
       style="fill:#ffffff;fill-opacity:1;fill-rule:evenodd;stroke:#000000;stroke-width:1.6;stroke-linecap:butt;stroke-linejoin:miter;stroke-miterlimit:4;stroke-dasharray:none;stroke-opacity:1"
       d="M 658.65113,218.4122 L 715.9438,218.4122 L 715.9438,227.89227 C 715.9438,227.89227 710.79155,223.56441 704.19674,225.21312 C 697.60188,226.86184 697.39581,228.30445 697.39581,228.30445 L 697.39581,292.39805 C 697.39581,292.39805 691.60367,289.99302 688.42012,289.99302 C 685.23657,289.99302 682.56952,284.14241 682.56952,284.14241 C 682.56952,284.14241 675.5504,292.39805 674.00473,292.70718 C 672.45906,293.01632 658.44502,290.13107 658.44502,290.13107 L 658.65113,218.4122 z "
       id="path11114"
       sodipodi:nodetypes="cccsccscscc" />
    <path
       style="fill:#ffffff;fill-opacity:1;fill-rule:evenodd;stroke:#000000;stroke-width:1.6;stroke-linecap:butt;stroke-linejoin:miter;stroke-miterlimit:4;stroke-dasharray:none;stroke-opacity:1"
       d="M 682.96959,284.1545 C 682.96959,284.1545 685.03048,288.89454 688.74008,290.13107 C 692.44967,291.3676 696.98363,292.81022 698.22016,293.84067 C 699.45668,294.87111 702.13583,300.22942 705.43327,300.22942 C 708.73069,300.22942 713.05853,292.60413 717.59248,293.63458 C 722.12644,294.66502 726.45432,298.99287 729.33955,298.58072 C 732.22481,298.16854 739.43789,291.3676 739.43789,291.3676 L 739.43789,326.4027 L 730.16391,326.4027 L 730.16391,349.07245 L 694.92272,349.07245 L 694.92272,336.08886 L 681.73304,336.08886 L 681.73304,285.18494 L 682.96959,284.1545 z "
       id="path11116" />
    <path
       style="fill:#ffffff;fill-opacity:1;fill-rule:evenodd;stroke:#000000;stroke-width:1.6;stroke-linecap:butt;stroke-linejoin:miter;stroke-miterlimit:4;stroke-dasharray:none;stroke-opacity:1"
       d="M 696.72897,227.82998 C 696.72897,227.82998 705.32683,224.04109 708.82427,224.91544 C 712.32172,225.78981 717.13072,229.87015 717.13072,229.87015 C 717.13072,229.87015 722.0854,227.82998 727.04012,224.04109 C 731.99485,220.25219 736.07519,217.33765 736.07519,217.33765 L 736.07519,263.3873 C 736.07519,263.3873 731.99485,264.26166 731.70338,265.71893 C 731.41194,267.1762 731.70338,296.613 731.70338,296.613 C 731.70338,296.613 730.53757,298.94462 728.20592,298.65316 C 725.87432,298.36172 719.17089,292.8241 716.83925,293.11555 C 714.50764,293.40701 707.51276,300.9848 705.18111,300.4019 C 702.8495,299.81899 696.72897,291.94975 696.72897,291.94975 L 696.72897,227.82998 z "
       id="path11118"
       sodipodi:nodetypes="cscsccscssscc" />
    <rect
       style="fill:#ffffff;fill-opacity:1;stroke:#000000;stroke-width:1.6;stroke-linecap:butt;stroke-miterlimit:4;stroke-dasharray:none;stroke-dashoffset:0;stroke-opacity:1"
       id="rect11993"
       width="25.647886"
       height="81.044144"
       x="785.62225"
       y="4.669642" />
    <path
       style="fill:#ffffff;fill-opacity:1;fill-rule:evenodd;stroke:#000000;stroke-width:1.6;stroke-linecap:butt;stroke-linejoin:miter;stroke-miterlimit:4;stroke-dasharray:none;stroke-opacity:1"
       d="M 785.62227,85.600696 L 804.85822,85.600696 L 804.85822,120.5751 L 812.43601,120.5751 L 812.43601,156.13242 L 804.56675,156.13242 L 804.56675,163.71021 L 781.8334,163.71021 L 781.8334,132.52469 L 751.23078,132.52469 L 751.23078,120.86655 L 785.91374,120.86655 L 785.62227,85.600696 z "
       id="path11995" />
    <path
       style="fill:#ffffff;fill-opacity:1;fill-rule:evenodd;stroke:#000000;stroke-width:1.6;stroke-linecap:butt;stroke-linejoin:miter;stroke-miterlimit:4;stroke-dasharray:none;stroke-opacity:1"
       d="M 715.67345,120.86655 L 750.93931,120.86655 L 750.93931,132.23324 L 781.83336,132.23324 L 781.83336,163.71021 L 764.63763,163.71021 L 764.63763,192.27266 L 715.38198,192.27266 L 715.67345,120.86655 z "
       id="path11997"
       sodipodi:nodetypes="ccccccccc" />
    <path
       style="fill:#ffffff;fill-opacity:1;fill-rule:evenodd;stroke:#000000;stroke-width:1.6;stroke-linecap:butt;stroke-linejoin:miter;stroke-miterlimit:4;stroke-dasharray:none;stroke-opacity:1"
       d="M 810.9507,4.4921096 L 847.84057,4.4921096 L 847.84057,58.281264 L 810.9507,58.281264 L 810.9507,4.4921096 z "
       id="path12001" />
    <path
       style="fill:#ffffff;fill-opacity:1;fill-rule:evenodd;stroke:#000000;stroke-width:1.6;stroke-linecap:butt;stroke-linejoin:miter;stroke-miterlimit:4;stroke-dasharray:none;stroke-opacity:1"
       d="M 811.36288,58.075177 L 857.52673,58.075177 L 857.52673,71.677032 L 847.42839,71.677032 L 847.42839,131.03058 L 833.62046,131.03058 C 833.62046,131.03058 835.47525,126.70271 830.9413,123.4053 C 826.40735,120.10787 812.39331,120.72614 812.39331,120.72614 L 804.56195,120.72614 L 804.56195,85.897154 L 811.77506,85.897154 L 811.36288,58.075177 z "
       id="path12003"
       sodipodi:nodetypes="ccccccsccccc" />
    <path
       style="fill:#ffffff;fill-opacity:1;fill-rule:evenodd;stroke:#000000;stroke-width:1.6;stroke-linecap:butt;stroke-linejoin:miter;stroke-miterlimit:4;stroke-dasharray:none;stroke-opacity:1"
       d="M 736.2209,241.23684 L 788.974,241.23684 L 788.974,260.76422 C 788.974,260.76422 782.12483,262.80439 779.79322,269.65355 C 777.46158,276.5027 779.79322,313.37157 779.79322,313.37157 L 739.28117,313.37157 L 739.28117,291.51256 L 731.84912,297.48735 C 731.84912,297.48735 730.97476,266.59329 731.84912,265.28175 C 732.72346,263.97021 735.92947,263.09584 735.92947,263.09584 L 736.2209,241.23684 z "
       id="path12005" />
    <path
       style="fill:#ffffff;fill-opacity:1;fill-rule:evenodd;stroke:#000000;stroke-width:1.6;stroke-linecap:butt;stroke-linejoin:miter;stroke-miterlimit:4;stroke-dasharray:none;stroke-opacity:1"
       d="M 764.58073,163.5926 L 811.56895,163.5926 L 811.56895,179.25533 L 817.54552,179.25533 L 817.54552,202.95554 L 808.68372,202.74945 C 808.68372,202.74945 805.79846,206.25296 804.14977,211.81735 C 802.50104,217.38176 801.88279,228.68127 801.88279,228.68127 L 776.12169,228.68127 L 776.12169,206.04687 L 764.16855,206.04687 L 764.58073,163.5926 z "
       id="path12007"
       sodipodi:nodetypes="ccccccsccccc" />
    <path
       style="fill:#ffffff;fill-opacity:1;fill-rule:evenodd;stroke:#000000;stroke-width:1.6;stroke-linecap:butt;stroke-linejoin:miter;stroke-miterlimit:4;stroke-dasharray:none;stroke-opacity:1"
       d="M 789.1053,228.71663 L 789.1053,261.07256 C 789.1053,261.07256 799.61582,260.24821 801.05843,257.98123 C 802.50104,255.71426 803.73759,253.85946 803.73759,253.85946 L 820.63686,253.85946 C 820.63686,253.85946 822.28558,247.05853 824.14037,247.05853 C 825.99517,247.05853 835.06308,247.05853 835.06308,247.05853 C 835.06308,247.05853 838.15441,244.99764 839.8031,243.34893 C 841.45183,241.70022 842.68836,237.16627 844.13098,237.16627 C 845.57359,237.16627 849.90144,238.60889 850.51973,237.57844 C 851.13799,236.54801 851.96234,234.69321 853.40496,234.48712 C 854.84757,234.28103 860.82415,234.28103 860.82415,234.28103 L 860.82415,202.95554 L 809.71415,202.95554 C 809.71415,202.95554 806.21064,200.89466 803.94366,213.25998 C 801.67669,225.6253 801.47061,228.71663 801.47061,228.71663 L 789.1053,228.71663 z "
       id="path12009"
       sodipodi:nodetypes="ccsccscsssscccscc" />
    <path
       style="fill:#ffffff;fill-opacity:1;fill-rule:evenodd;stroke:#000000;stroke-width:1.6;stroke-linecap:butt;stroke-linejoin:miter;stroke-miterlimit:4;stroke-dasharray:none;stroke-opacity:1"
       d="M 847.41041,4.4735851 L 893.75151,4.5766296 L 893.75151,71.610926 L 857.31984,71.610926 L 857.31984,58.083344 L 847.99331,58.083344 L 847.41041,4.4735851 z "
       id="path12011"
       sodipodi:nodetypes="ccccccc" />
    <path
       style="fill:#ffffff;fill-opacity:1;fill-rule:evenodd;stroke:#000000;stroke-width:1.6;stroke-linecap:butt;stroke-linejoin:miter;stroke-miterlimit:4;stroke-dasharray:none;stroke-opacity:1"
       d="M 893.87226,4.6296673 L 937.21343,4.5266239 L 937.21343,48.586104 L 893.99297,48.586104 L 893.87226,4.6296673 z "
       id="path12013"
       sodipodi:nodetypes="ccccc" />
    <path
       style="fill:#ffffff;fill-opacity:1;fill-rule:evenodd;stroke:#000000;stroke-width:1.6;stroke-linecap:butt;stroke-linejoin:miter;stroke-miterlimit:4;stroke-dasharray:none;stroke-opacity:1"
       d="M 894.04298,48.877559 L 894.04298,117.66056 L 946.21314,117.66056 L 937.17807,77.731449 L 937.17807,48.877559 L 894.04298,48.877559 L 894.04298,48.877559 z "
       id="path12015" />
    <path
       style="fill:#ffffff;fill-opacity:1;fill-rule:evenodd;stroke:#000000;stroke-width:1.6;stroke-linecap:butt;stroke-linejoin:miter;stroke-miterlimit:4;stroke-dasharray:none;stroke-opacity:1"
       d="M 919.39941,117.95202 L 919.39941,189.06667 L 959.03709,189.06667 L 946.79604,117.95202 L 919.39941,117.95202 z "
       id="path12017" />
    <path
       style="fill:#ffffff;fill-opacity:1;fill-rule:evenodd;stroke:#000000;stroke-width:1.6;stroke-linecap:butt;stroke-linejoin:miter;stroke-miterlimit:4;stroke-dasharray:none;stroke-opacity:1"
       d="M 883.32687,188.48376 L 958.74566,188.48376 L 963.9918,222.87527 C 963.9918,222.87527 953.79094,238.03084 951.75076,235.99067 C 949.71059,233.9505 949.71059,229.28724 947.37895,230.74451 C 945.04734,232.20178 942.13279,238.90521 939.50971,236.86503 C 936.88664,234.82486 932.51482,227.82998 929.01738,228.41289 C 925.51993,228.99579 924.06269,232.20178 921.14814,231.32742 C 918.23361,230.45306 922.02252,225.7898 917.0678,226.66416 C 912.11308,227.53852 910.0729,230.45306 908.9071,227.53852 C 907.7413,224.62398 906.57546,220.83509 903.95238,221.418 C 901.32931,222.0009 896.66606,223.16672 895.79169,219.96073 C 894.91732,216.75475 893.16861,212.96585 889.96263,210.92567 C 886.75662,208.8855 883.34457,206.10937 883.34457,206.10937 L 883.32687,188.48376 z "
       id="path12019"
       sodipodi:nodetypes="cccsssssssssscc" />
    <path
       style="fill:#ffffff;fill-opacity:1;fill-rule:evenodd;stroke:#000000;stroke-width:1.6;stroke-linecap:butt;stroke-linejoin:miter;stroke-miterlimit:4;stroke-dasharray:none;stroke-opacity:1"
       d="M 847.73752,130.92753 L 883.28783,131.23666 L 883.28783,117.42872 L 894.21054,117.42872 L 894.21054,71.677032 L 848.04664,71.677032 L 847.73752,130.92753 z "
       id="path12894"
       sodipodi:nodetypes="ccccccc" />
    <path
       style="fill:#ffffff;fill-opacity:1;fill-rule:evenodd;stroke:#000000;stroke-width:1.6;stroke-linecap:butt;stroke-linejoin:miter;stroke-miterlimit:4;stroke-dasharray:none;stroke-opacity:1"
       d="M 919.10797,117.66056 L 919.10797,188.48376 L 883.25921,188.48376 L 882.84703,166.12721 L 868.68651,166.3333 C 868.68651,166.3333 875.0786,159.75364 873.13361,158.6307 C 871.18862,157.50777 864.02327,154.67516 865.77198,148.84609 C 867.52071,143.01701 873.7089,131.12046 873.7089,131.12046 L 883.25921,131.12046 L 883.25921,117.66056 L 919.10797,117.66056 z "
       id="path12896"
       sodipodi:nodetypes="cccccsscccc" />
    <path
       style="fill:#ffffff;fill-opacity:1;fill-rule:evenodd;stroke:#000000;stroke-width:1.6;stroke-linecap:butt;stroke-linejoin:miter;stroke-miterlimit:4;stroke-dasharray:none;stroke-opacity:1"
       d="M 810.68727,164.00167 L 824.96849,164.00167 C 824.96849,164.00167 823.80268,171.28801 828.17446,172.74527 C 832.54628,174.20254 838.08391,168.66492 840.70698,168.66492 C 843.33006,168.66492 853.23949,168.66492 853.23949,168.66492 L 854.69674,166.04184 L 882.96774,166.04184 L 883.25921,205.97097 C 883.25921,205.97097 890.83697,210.63422 891.4199,212.09149 C 892.0028,213.54875 880.05319,242.40265 874.22414,242.1112 C 868.39506,241.81975 860.52582,237.44795 860.52582,237.44795 L 860.52582,202.76498 L 817.39069,202.76498 L 817.39069,179.4487 L 811.27017,179.4487 L 810.68727,164.00167 z "
       id="path12898" />
    <path
       style="fill:#ffffff;fill-opacity:1;fill-rule:evenodd;stroke:#000000;stroke-width:1.6;stroke-linecap:butt;stroke-linejoin:miter;stroke-miterlimit:4;stroke-dasharray:none;stroke-opacity:1"
       d="M 812.14454,121.01228 C 812.14454,121.01228 829.91589,120.38669 832.68468,124.61276 C 835.45349,128.83884 833.71209,131.06743 833.71209,131.06743 L 873.64123,131.06743 C 873.64123,131.06743 864.16899,149.28327 865.62625,151.76061 C 867.08353,154.23798 874.07843,158.46405 873.64123,159.48414 C 873.20405,160.50423 869.26942,166.18757 869.26942,166.18757 L 854.62907,166.18757 L 853.24524,168.83834 L 839.54117,168.94139 C 839.54117,168.94139 831.07113,175.18145 828.19947,173.03672 C 823.89063,169.81863 824.05667,163.46696 824.0588,163.46877 L 804.42103,163.5218 L 804.42103,156.13242 L 812.29026,156.13242 L 812.14454,121.01228 z "
       id="path12916"
       sodipodi:nodetypes="csccssccccsccccc" />
    <path
       style="fill:#ffffff;fill-opacity:1;fill-rule:evenodd;stroke:#000000;stroke-width:1.6;stroke-linecap:butt;stroke-linejoin:miter;stroke-miterlimit:4;stroke-dasharray:none;stroke-opacity:1"
       d="M 849.90144,237.99062 C 849.90144,237.99062 851.34409,235.10538 852.16842,234.69321 C 852.99278,234.28103 860.412,234.28103 860.412,234.28103 L 861.03025,237.57844 C 861.03025,237.57844 871.33469,243.14284 874.21993,242.1124 C 877.10516,241.08196 885.55481,228.09836 887.2035,224.59486 C 888.85222,221.09135 892.14963,212.22953 892.14963,212.22953 C 892.14963,212.22953 895.85926,221.29743 897.50794,221.9157 C 899.15667,222.53397 904.72105,220.47308 905.54542,221.50352 C 906.36978,222.53397 909.255,229.1288 910.07937,229.1288 C 910.90373,229.1288 918.94116,226.03748 919.35335,226.86184 C 919.76553,227.68619 919.76553,231.39578 920.79596,231.60188 C 921.82644,231.80797 922.03251,231.80797 922.03251,231.80797 L 922.03251,248.70724 L 908.84283,248.70724 L 908.84283,270.55264 L 861.6485,270.55264 L 861.6485,257.77515 L 849.90144,257.77515 L 849.90144,237.99062 z "
       id="path13793"
       sodipodi:nodetypes="csccsscssssscccccccc" />
    <path
       style="fill:#ffffff;fill-opacity:1;fill-rule:evenodd;stroke:#000000;stroke-width:1.6;stroke-linecap:butt;stroke-linejoin:miter;stroke-miterlimit:4;stroke-dasharray:none;stroke-opacity:1"
       d="M 922.16823,232.05605 C 922.16823,232.05605 928.5802,227.10135 930.03747,228.26716 C 931.49473,229.43297 939.50971,237.88512 940.67552,237.73939 C 941.84132,237.59366 947.23322,230.01587 948.25331,230.30733 C 949.2734,230.59878 950.58495,236.1364 951.89648,235.99067 C 953.20803,235.84495 964.13753,222.72954 964.13753,222.72954 L 964.13753,345.56254 L 909.49,345.56254 L 909.49,322.84381 L 895.50026,322.84381 L 895.50026,298.65316 C 895.50026,298.65316 900.16351,297.1959 901.03784,294.57282 C 901.91221,291.94975 900.45493,288.16084 902.78657,286.70358 C 905.11818,285.24631 908.61564,286.32676 908.61564,286.32676 L 908.61564,249.02072 L 922.60542,248.81463 L 922.16823,232.05605 z "
       id="path13795"
       sodipodi:nodetypes="cssssccccccsscccc" />
    <path
       style="fill:#ffffff;fill-opacity:1;fill-rule:evenodd;stroke:#000000;stroke-width:1.6;stroke-linecap:butt;stroke-linejoin:miter;stroke-miterlimit:4;stroke-dasharray:none;stroke-opacity:1"
       d="M 861.69163,270.09073 L 908.61564,270.09073 L 908.61564,286.41212 C 908.61564,286.41212 902.49512,284.66341 901.91221,286.41212 C 901.32931,288.16084 902.20368,294.86427 900.7464,296.03009 C 899.28913,297.1959 895.20879,298.65316 895.20879,298.65316 L 895.20879,322.84381 L 844.20442,322.84381 L 844.20442,275.9198 L 862.27453,275.9198 L 861.69163,270.09073 z "
       id="path13797" />
    <path
       style="fill:#ffffff;fill-opacity:1;fill-rule:evenodd;stroke:#000000;stroke-width:1.6;stroke-linecap:butt;stroke-linejoin:miter;stroke-miterlimit:4;stroke-dasharray:none;stroke-opacity:1"
       d="M 896.95749,345.57717 L 964.57471,345.57717 L 964.57471,463.90728 C 964.57471,463.90728 953.20803,458.66112 943.8815,456.62095 C 934.55499,454.58077 935.1379,449.04315 929.30885,448.75171 C 923.47975,448.46025 920.27378,445.83717 915.31906,440.59102 C 910.36437,435.34483 908.9071,435.05339 904.53529,434.76193 C 900.16351,434.4705 896.08315,428.34997 892.29424,426.60123 C 888.50536,424.85253 886.17372,423.97815 886.17372,423.97815 L 886.17372,381.7174 L 896.95752,381.7174 L 896.95749,345.57717 z "
       id="path13799"
       sodipodi:nodetypes="cccssssscccc" />
    <path
       style="fill:#ffffff;fill-opacity:1;fill-rule:evenodd;stroke:#000000;stroke-width:1.6;stroke-linecap:butt;stroke-linejoin:miter;stroke-miterlimit:4;stroke-dasharray:none;stroke-opacity:1"
       d="M 844.49586,322.84381 L 909.49,322.84381 L 909.49,345.57717 L 896.66606,345.57717 L 896.66606,382.3003 L 886.46519,382.3003 L 886.46519,394.83281 L 814.76762,394.83281 L 814.76762,345.86863 L 827.30013,345.86863 L 827.30013,335.08486 L 845.0788,335.08486 L 844.49586,322.84381 z "
       id="path13801" />
    <path
       style="fill:#ffffff;fill-opacity:1;fill-rule:evenodd;stroke:#000000;stroke-width:1.6;stroke-linecap:butt;stroke-linejoin:miter;stroke-miterlimit:4;stroke-dasharray:none;stroke-opacity:1"
       d="M 739.57263,313.51731 L 779.79322,313.51731 L 779.79322,345.86863 C 779.79322,345.86863 774.54703,346.743 773.96413,349.36608 C 773.38123,351.98915 773.96413,361.89856 773.96413,361.89856 L 729.95467,361.89856 L 729.95467,326.0498 L 739.28117,326.0498 L 739.57263,313.51731 z "
       id="path14676" />
    <path
       style="fill:#ffffff;fill-opacity:1;fill-rule:evenodd;stroke:#000000;stroke-width:1.6;stroke-linecap:butt;stroke-linejoin:miter;stroke-miterlimit:4;stroke-dasharray:none;stroke-opacity:1"
       d="M 780.08466,322.84381 L 801.6522,322.84381 L 801.6522,335.08483 L 827.30013,335.08483 L 827.30013,346.45154 L 814.47618,346.45154 L 814.47618,394.83281 L 742.48715,394.83281 L 742.48715,361.85014 L 774.2556,361.85014 C 774.2556,361.85014 772.50686,351.40625 774.54703,348.78318 C 776.58721,346.1601 780.08466,346.1601 780.08466,346.1601 L 780.08466,322.84381 z "
       id="path14678"
       sodipodi:nodetypes="ccccccccccscc" />
    <path
       style="fill:#ffffff;fill-opacity:1;fill-rule:evenodd;stroke:#000000;stroke-width:1.6;stroke-linecap:butt;stroke-linejoin:miter;stroke-miterlimit:4;stroke-dasharray:none;stroke-opacity:1"
       d="M 681.11479,373.28786 L 687.91572,373.28786 L 687.91572,349.07245 L 729.85478,349.07245 L 729.85478,361.95297 L 742.42617,361.95297 L 742.42617,394.72111 C 742.42617,394.72111 737.58309,400.90376 730.57609,401.10986 C 723.56906,401.31594 716.14987,394.20587 716.14987,394.20587 L 681.21784,394.20587 L 681.11479,373.28786 z "
       id="path14680" />
    <path
       style="fill:#ffffff;fill-opacity:1;fill-rule:evenodd;stroke:#000000;stroke-width:1.6;stroke-linecap:butt;stroke-linejoin:miter;stroke-miterlimit:4;stroke-dasharray:none;stroke-opacity:1"
       d="M 677.19909,394.41195 L 716.35598,394.41195 C 716.35598,394.41195 720.47774,397.91547 722.53861,399.15201 C 724.59952,400.38855 726.35126,400.8007 726.35126,400.8007 C 726.35126,400.8007 728.30911,410.07471 724.39341,413.37212 C 720.47774,416.66954 719.24121,418.11218 720.27164,420.17305 C 721.30208,422.23395 723.56906,425.53137 723.56906,425.53137 L 718.82903,431.09575 C 718.82903,431.09575 712.0281,428.6227 710.58548,431.09575 C 709.14287,433.56884 710.58548,442.43064 704.40281,441.4002 C 698.22016,440.36977 695.54101,436.45407 692.2436,436.45407 C 688.94615,436.45407 686.67918,429.24096 685.23657,428.00442 C 683.79395,426.76791 681.73304,425.32526 681.73304,425.32526 L 681.73304,417.28782 L 677.19909,417.28782 L 677.19909,394.41195 z "
       id="path14682"
       sodipodi:nodetypes="ccscssccsssscccc" />
    <path
       style="fill:#ffffff;fill-opacity:1;fill-rule:evenodd;stroke:#000000;stroke-width:1.6;stroke-linecap:butt;stroke-linejoin:miter;stroke-miterlimit:4;stroke-dasharray:none;stroke-opacity:1"
       d="M 726.45722,400.37044 C 726.45722,400.37044 730.53757,402.26489 733.16064,401.2448 C 735.78372,400.22471 742.77862,394.54134 742.77862,394.54134 L 792.47146,394.54134 C 792.47146,394.54134 795.24025,396.29009 796.40605,400.37044 C 797.57189,404.45078 796.40605,424.41535 796.40605,424.41535 C 796.40605,424.41535 811.27017,432.28457 809.66718,435.34483 C 808.06419,438.4051 804.12956,437.53076 802.38085,436.51067 C 800.63215,435.49059 798.44622,434.03331 798.44622,434.03331 C 798.44622,434.03331 784.60219,434.4705 780.23041,437.385 C 775.85859,440.29955 769.73807,453.99787 767.55217,453.85215 C 765.36626,453.7064 761.72309,450.3547 759.24573,450.3547 C 756.7684,450.3547 755.31112,460.84702 751.9594,459.68121 C 748.6077,458.51541 740.15554,448.46025 740.15554,448.46025 C 740.15554,448.46025 735.92947,449.33462 733.3064,448.16882 C 730.68329,447.00297 725.1457,442.48545 723.54267,442.63119 C 721.93969,442.77691 720.77388,441.90254 720.77388,439.71664 C 720.77388,437.53076 719.31661,430.68158 719.31661,430.68158 L 723.83414,425.58114 C 723.83414,425.58114 719.31661,419.75209 719.7538,418.58628 C 720.19098,417.42045 724.99995,413.63156 726.02004,411.59139 C 727.04012,409.55122 726.60294,400.22471 726.45722,400.37044 z "
       id="path14684" />
    <path
       style="fill:#ffffff;fill-opacity:1;fill-rule:evenodd;stroke:#000000;stroke-width:1.6;stroke-linecap:butt;stroke-linejoin:miter;stroke-miterlimit:4;stroke-dasharray:none;stroke-opacity:1"
       d="M 793.20007,394.83281 L 886.46519,394.83281 L 886.46519,420.18928 C 886.46519,420.18928 884.42502,419.02344 881.21903,421.35509 C 878.01302,423.68672 876.55575,431.55595 871.01816,432.72176 C 865.48054,433.88759 860.81729,438.25938 858.19418,437.385 C 855.5711,436.51067 847.41041,435.34483 846.2446,434.17903 C 845.0788,433.01322 843.33006,426.60123 838.66681,426.60123 C 834.00356,426.60123 824.09412,428.05851 821.47104,431.26448 C 818.84796,434.4705 816.80779,437.09358 814.76762,437.09358 C 812.72744,437.09358 810.10436,435.6363 810.10436,435.6363 C 810.10436,435.6363 808.35566,431.26448 803.40094,428.6414 C 798.44622,426.01833 796.11461,424.56106 796.11461,424.56106 C 796.11461,424.56106 798.15479,405.03369 796.98895,402.11914 C 795.82315,399.20463 793.49151,395.12428 793.20007,394.83281 z "
       id="path14686" />
  </g>
</svg>
