<?xml version="1.0" encoding="UTF-8" standalone="no"?>
<!-- Created with Inkscape (http://www.inkscape.org/) -->

<svg
   xmlns:dc="http://purl.org/dc/elements/1.1/"
   xmlns:cc="http://creativecommons.org/ns#"
   xmlns:rdf="http://www.w3.org/1999/02/22-rdf-syntax-ns#"
   xmlns:svg="http://www.w3.org/2000/svg"
   xmlns="http://www.w3.org/2000/svg"
   xmlns:sodipodi="http://sodipodi.sourceforge.net/DTD/sodipodi-0.dtd"
   xmlns:inkscape="http://www.inkscape.org/namespaces/inkscape"
   width="778pt"
   height="375pt"
   id="svg2"
   sodipodi:version="0.32"
   inkscape:version="0.48.2 r9819"
   version="1.0"
   sodipodi:docname="Oklahoma.svg">
  <defs
     id="defs4" />
  <sodipodi:namedview
     id="base"
     pagecolor="#ffffff"
     bordercolor="#666666"
     borderopacity="1.0"
     inkscape:pageopacity="0.0"
     inkscape:pageshadow="2"
     inkscape:zoom="0.9899495"
     inkscape:cx="566.39884"
     inkscape:cy="183.19405"
     inkscape:document-units="px"
     inkscape:current-layer="layer2"
     inkscape:window-width="1024"
     inkscape:window-height="749"
     inkscape:window-x="-4"
     inkscape:window-y="22"
     showgrid="false"
     inkscape:window-maximized="0" />
  <metadata
     id="metadata7">
    <rdf:RDF>
      <cc:Work
         rdf:about="">
        <dc:format>image/svg+xml</dc:format>
        <dc:type
           rdf:resource="http://purl.org/dc/dcmitype/StillImage" />
      </cc:Work>
    </rdf:RDF>
  </metadata>
  <g
     inkscape:label="Layer 1"
     inkscape:groupmode="layer"
     id="layer1"
     sodipodi:insensitive="true">
    <path
       style="fill:#ffffff;fill-opacity:1;fill-rule:evenodd;stroke:#000000;stroke-width:1.60000002;stroke-linecap:butt;stroke-linejoin:miter;stroke-miterlimit:4;stroke-opacity:1;stroke-dasharray:none"
       d="m 668.27944,77.337313 c 0,0 7.75632,5.348845 10.67087,4.474485 2.91455,-0.87436 16.9043,-17.487208 18.0701,-16.02994 1.16584,1.457269 6.99489,18.361569 8.7436,19.235928 1.74875,0.874361 16.61286,3.205989 17.19577,4.663258 0.58289,1.457265 -3.49745,10.783776 -2.33161,11.949586 1.1658,1.16581 9.61794,-4.371796 9.61794,-4.371796 0,0 6.70346,8.743596 13.69831,11.658126 6.99489,2.91454 12.53251,4.66325 12.53251,4.66325 l 0,6.99489 -62.37103,0 0,-10.20087 -13.11542,0 0,-12.241035 -12.53247,0 -0.17857,-20.795882 z"
       id="path4960"
       sodipodi:nodetypes="cssssscscccccccc"
       inkscape:connector-curvature="0" />
    <path
       style="fill:#ffffff;fill-opacity:1;fill-rule:evenodd;stroke:#000000;stroke-width:1.60000002;stroke-linecap:butt;stroke-linejoin:miter;stroke-miterlimit:4;stroke-opacity:1;stroke-dasharray:none"
       d="m 779.4191,313.21301 -0.82433,-52.34654 71.30667,-26.17326 0,23.08194 11.54099,0 0,17.92971 -17.10537,0 0,59.76573 -42.45427,0 0,-12.57142 -22.0515,0 -0.41219,-9.68616 z"
       id="path13791"
       inkscape:connector-curvature="0" />
    <path
       style="fill:#ffffff;fill-opacity:1;fill-rule:evenodd;stroke:#000000;stroke-width:1.60000002;stroke-linecap:butt;stroke-linejoin:miter;stroke-miterlimit:4;stroke-opacity:1;stroke-dasharray:none"
       d="m 715.67345,192.12692 48.96418,0 0,13.69832 11.65814,0 0,22.73337 12.82396,0 0,12.82395 -52.7531,0 0,-23.89918 -19.96453,13.84403 -0.72865,-39.20049 z"
       id="path11999"
       sodipodi:nodetypes="ccccccccccc"
       inkscape:connector-curvature="0" />
    <rect
       style="fill:#ffffff;fill-opacity:1;stroke:#000000;stroke-width:1.60000002;stroke-linecap:butt;stroke-miterlimit:4;stroke-opacity:1;stroke-dasharray:none;stroke-dashoffset:0"
       id="rect1400"
       width="110.46355"
       height="60.177906"
       x="8.6472902"
       y="5.1103759" />
    <rect
       y="5.1103759"
       x="119.11085"
       height="60.177906"
       width="110.46355"
       id="rect1402"
       style="fill:#ffffff;fill-opacity:1;stroke:#000000;stroke-width:1.60000002;stroke-linecap:butt;stroke-miterlimit:4;stroke-opacity:1;stroke-dasharray:none;stroke-dashoffset:0" />
    <rect
       style="fill:#ffffff;fill-opacity:1;stroke:#000000;stroke-width:1.60000002;stroke-linecap:butt;stroke-miterlimit:4;stroke-opacity:1;stroke-dasharray:none;stroke-dashoffset:0"
       id="rect1404"
       width="110.46355"
       height="60.177906"
       x="227.9257"
       y="5.1103759" />
    <path
       style="fill:#ffffff;fill-opacity:1;fill-rule:evenodd;stroke:#000000;stroke-width:1.60000002;stroke-linecap:butt;stroke-linejoin:miter;stroke-miterlimit:4;stroke-opacity:1;stroke-dasharray:none"
       d="m 338.38925,156.37949 c 0,0 6.18266,-1.23653 9.89226,-7.83138 3.7096,-6.59483 7.007,-12.77749 8.65573,-9.48008 1.64868,3.29743 0.82436,23.08194 16.48709,23.90629 15.66275,0.82437 17.72362,-18.54797 22.66975,-20.60886 4.94614,-2.06089 10.71664,-1.64871 10.71664,-1.64871 l 0,-21.11396 -24.3185,0 0,-58.436279 -43.99993,0 -0.10304,95.212979 z"
       id="path1406"
       sodipodi:nodetypes="csssscccccc"
       inkscape:connector-curvature="0" />
    <path
       style="fill:#ffffff;fill-opacity:1;fill-rule:evenodd;stroke:#000000;stroke-width:1.60000002;stroke-linecap:butt;stroke-linejoin:miter;stroke-miterlimit:4;stroke-opacity:1;stroke-dasharray:none"
       d="m 338.53264,61.118604 78.401,0 0,-29.145349 c 0,0 -6.41196,-7.869242 -9.61797,-14.57267 -3.20599,-6.703432 -2.76498,-12.3592166 -2.76498,-12.3592166 l -66.30949,0 0.29144,56.0772356 z"
       id="path1408"
       sodipodi:nodetypes="cccsccc"
       inkscape:connector-curvature="0" />
    <rect
       style="fill:#ffffff;fill-opacity:1;stroke:#000000;stroke-width:1.60000002;stroke-linecap:butt;stroke-miterlimit:4;stroke-opacity:1;stroke-dasharray:none;stroke-dashoffset:0"
       id="rect1410"
       width="74.612083"
       height="56.250523"
       x="548.08771"
       y="5.1595383" />
    <rect
       style="fill:#ffffff;fill-opacity:1;stroke:#000000;stroke-width:1.60000002;stroke-linecap:butt;stroke-miterlimit:4;stroke-opacity:1;stroke-dasharray:none;stroke-dashoffset:0"
       id="rect1412"
       width="74.612083"
       height="59.165054"
       x="548.08771"
       y="60.621059" />
    <rect
       style="fill:#ffffff;fill-opacity:1;stroke:#000000;stroke-width:1.60000002;stroke-linecap:butt;stroke-miterlimit:4;stroke-opacity:1;stroke-dasharray:none;stroke-dashoffset:0"
       id="rect1414"
       width="60.50293"
       height="48.466618"
       x="597.79022"
       y="182.27788" />
    <rect
       style="fill:#ffffff;fill-opacity:1;stroke:#000000;stroke-width:1.60000002;stroke-linecap:butt;stroke-miterlimit:4;stroke-opacity:1;stroke-dasharray:none;stroke-dashoffset:0"
       id="rect1416"
       width="57.707787"
       height="65.868484"
       x="658.25714"
       y="152.63498" />
    <rect
       style="fill:#ffffff;fill-opacity:1;stroke:#000000;stroke-width:1.60000002;stroke-linecap:butt;stroke-miterlimit:4;stroke-opacity:1;stroke-dasharray:none;stroke-dashoffset:0"
       id="rect1418"
       width="59.735485"
       height="62.67532"
       x="537.88678"
       y="119.83496" />
    <rect
       style="fill:#ffffff;fill-opacity:1;stroke:#000000;stroke-width:1.60000002;stroke-linecap:butt;stroke-miterlimit:4;stroke-opacity:1;stroke-dasharray:none;stroke-dashoffset:0"
       id="rect1420"
       width="65.431305"
       height="57.124882"
       x="544.59027"
       y="324.00961" />
    <rect
       style="fill:#ffffff;fill-opacity:1;stroke:#000000;stroke-width:1.60000002;stroke-linecap:butt;stroke-miterlimit:4;stroke-opacity:1;stroke-dasharray:none;stroke-dashoffset:0"
       id="rect1422"
       width="85.356949"
       height="49.616051"
       x="407.02423"
       y="119.48713" />
    <rect
       y="168.95636"
       x="407.02423"
       height="48.96418"
       width="85.104408"
       id="rect1426"
       style="fill:#ffffff;fill-opacity:1;stroke:#000000;stroke-width:1.60000002;stroke-linecap:butt;stroke-miterlimit:4;stroke-opacity:1;stroke-dasharray:none;stroke-dashoffset:0" />
    <rect
       style="fill:#ffffff;fill-opacity:1;stroke:#000000;stroke-width:1.60000002;stroke-linecap:butt;stroke-miterlimit:4;stroke-opacity:1;stroke-dasharray:none;stroke-dashoffset:0"
       id="rect1428"
       width="85.104408"
       height="48.96418"
       x="407.02423"
       y="217.92056" />
    <path
       style="fill:#ffffff;fill-opacity:1;fill-rule:evenodd;stroke:#000000;stroke-width:1.60000002;stroke-linecap:butt;stroke-linejoin:miter;stroke-miterlimit:4;stroke-opacity:1;stroke-dasharray:none"
       d="m 416.93364,35.179244 18.07013,0 c 0,0 8.16069,10.200871 12.24104,16.612849 4.08035,6.411974 6.6511,11.52007 6.6511,11.52007 l 0,56.388577 -71.35377,0 -0.14572,-58.582136 34.39149,0 0.14573,-25.93936 z"
       id="path1430"
       sodipodi:nodetypes="ccscccccc"
       inkscape:connector-curvature="0" />
    <path
       style="fill:#ffffff;fill-opacity:1;fill-rule:evenodd;stroke:#000000;stroke-width:1.60000002;stroke-linecap:butt;stroke-linejoin:miter;stroke-miterlimit:4;stroke-opacity:1;stroke-dasharray:none"
       d="m 404.10968,5.4509898 c 0,0 2.62308,12.2410452 5.24616,16.6128492 2.62308,4.371803 8.16069,10.783776 8.16069,10.783776 l 0,2.331629 17.19577,0 c 0,0 11.94958,14.572675 14.28123,18.944475 2.33163,4.371802 4.95471,9.32651 4.95471,9.32651 l 0,11.075232 15.15556,0 c 0,0 1.74874,5.829072 7.86926,8.452151 6.12053,2.623084 13.69831,8.160697 17.19577,8.452152 3.4974,0.291455 8.16069,-5.537617 8.16069,-5.537617 l 0,-80.7326119 -98.21984,0.2914547 z"
       id="path1432"
       sodipodi:nodetypes="cscccscccssccc"
       inkscape:connector-curvature="0" />
    <rect
       style="fill:#ffffff;fill-opacity:1;stroke:#000000;stroke-width:1.60000002;stroke-linecap:butt;stroke-miterlimit:4;stroke-opacity:1;stroke-dasharray:none;stroke-dashoffset:0"
       id="rect1434"
       width="46.341103"
       height="75.813614"
       x="501.74658"
       y="5.1416845" />
    <path
       style="fill:#ffffff;fill-opacity:1;fill-rule:evenodd;stroke:#000000;stroke-width:1.60000002;stroke-linecap:butt;stroke-linejoin:miter;stroke-miterlimit:4;stroke-opacity:1;stroke-dasharray:none"
       d="m 453.65677,73.942555 16.02996,0 c 0,0 1.45724,6.703429 13.11539,12.532501 11.65814,5.829068 13.40688,5.537614 16.61285,2.914534 3.20599,-2.62308 2.18208,-8.52241 2.18208,-8.52241 l 46.34492,0 0,38.95429 -94.2852,-0.12627 0,-45.752645 z"
       id="path1436"
       sodipodi:nodetypes="ccssccccc"
       inkscape:connector-curvature="0" />
    <path
       style="fill:#ffffff;fill-opacity:1;fill-rule:evenodd;stroke:#000000;stroke-width:1.60000002;stroke-linecap:butt;stroke-linejoin:miter;stroke-miterlimit:4;stroke-opacity:1;stroke-dasharray:none"
       d="m 492.13142,119.84143 45.75171,0 0,62.65097 -12.77749,0 0,23.49411 -32.56204,0 -0.41218,-86.14508 z"
       id="path1438"
       inkscape:connector-curvature="0" />
    <path
       style="fill:#ffffff;fill-opacity:1;fill-rule:evenodd;stroke:#000000;stroke-width:1.60000002;stroke-linecap:butt;stroke-linejoin:miter;stroke-miterlimit:4;stroke-opacity:1;stroke-dasharray:none"
       d="m 338.41193,156.13242 0,65.86848 46.17038,0 0,-14.57267 22.44192,0 0,-67.32574 c 0,0 -9.61797,-0.58291 -12.53251,2.91452 -2.91455,3.49745 -7.28633,20.11029 -19.23594,19.81885 -11.94958,-0.29146 -15.44702,-7.28634 -16.3214,-12.24105 -0.87433,-4.95471 -1.45723,-15.15558 -3.78888,-12.53251 -2.33164,2.62309 -7.86923,14.57268 -11.36667,16.61286 -3.49745,2.04017 -4.784,2.62308 -5.3669,1.45726 z"
       id="path2314"
       sodipodi:nodetypes="ccccccsssssc"
       inkscape:connector-curvature="0" />
    <path
       style="fill:#ffffff;fill-opacity:1;fill-rule:evenodd;stroke:#000000;stroke-width:1.60000002;stroke-linecap:butt;stroke-linejoin:miter;stroke-miterlimit:4;stroke-opacity:1;stroke-dasharray:none"
       d="m 492.33753,206.04687 33.18028,0 0,25.55501 24.73063,0 0,68.21535 -57.91091,0 0,-93.77036 z"
       id="path3191"
       sodipodi:nodetypes="ccccccc"
       inkscape:connector-curvature="0" />
    <path
       style="fill:#ffffff;fill-opacity:1;fill-rule:evenodd;stroke:#000000;stroke-width:1.60000002;stroke-linecap:butt;stroke-linejoin:miter;stroke-miterlimit:4;stroke-opacity:1;stroke-dasharray:none"
       d="m 338.18317,221.9157 46.57603,0 0,-14.83839 22.25759,0 0,56.88049 -49.25519,0 0,11.74706 -19.57846,0 3e-5,-53.78916 z"
       id="path3193"
       sodipodi:nodetypes="ccccccccc"
       inkscape:connector-curvature="0" />
    <path
       style="fill:#ffffff;fill-opacity:1;fill-rule:evenodd;stroke:#000000;stroke-width:1.60000002;stroke-linecap:butt;stroke-linejoin:miter;stroke-miterlimit:4;stroke-opacity:1;stroke-dasharray:none"
       d="m 597.63478,119.84647 34.97443,0 0,24.62782 c 0,0 5.82905,-0.87436 8.45216,0.5829 2.62308,1.45727 4.37178,4.66325 6.99486,5.82907 2.62308,1.16581 10.49234,1.16581 10.49234,1.16581 l 0,30.31117 -60.91379,0 0,-62.51677 z"
       id="path3195"
       sodipodi:nodetypes="cccsscccc"
       inkscape:connector-curvature="0" />
    <path
       style="fill:#ffffff;fill-opacity:1;fill-rule:evenodd;stroke:#000000;stroke-width:1.60000002;stroke-linecap:butt;stroke-linejoin:miter;stroke-miterlimit:4;stroke-opacity:1;stroke-dasharray:none"
       d="m 622.55406,5.1595351 78.40098,0 -0.14572,30.3111639 c 0,0 -4.81996,4.26526 -9.61134,5.549103 -4.79137,1.283845 -7.58442,6.983394 -11.08186,8.149207 -3.49745,1.165815 -6.70343,-2.331624 -9.90941,-1.457265 -3.20601,0.87436 -6.99489,4.954709 -6.12052,6.703428 0.87433,1.748721 2.89379,6.120523 2.89379,6.120523 l -44.28021,0 -0.14571,-55.3761599 z"
       id="path3197"
       sodipodi:nodetypes="cccssssccc"
       inkscape:connector-curvature="0" />
    <path
       style="fill:#ffffff;fill-opacity:1;fill-rule:evenodd;stroke:#000000;stroke-width:1.60000002;stroke-linecap:butt;stroke-linejoin:miter;stroke-miterlimit:4;stroke-opacity:1;stroke-dasharray:none"
       d="m 622.6998,60.244241 43.28081,0 c 0,0 0.43719,4.371803 4.2261,4.663257 3.78888,0.291455 3.20598,-3.497443 7.86924,-2.914534 4.66324,0.582905 7.57778,2.62308 5.53761,4.3718 -2.04017,1.748723 -13.40685,5.537617 -12.53251,8.160697 0.87437,2.623083 -3.06027,3.060261 -3.06027,3.060261 l 0,19.964561 13.26114,0 0,13.115407 -23.60772,0 0,12.82395 -25.35646,0 0,-3.49745 -9.90941,0 0.29147,-59.747949 z"
       id="path3199"
       sodipodi:nodetypes="ccsssscccccccccc"
       inkscape:connector-curvature="0" />
    <path
       style="fill:#ffffff;fill-opacity:1;fill-rule:evenodd;stroke:#000000;stroke-width:1.60000002;stroke-linecap:butt;stroke-linejoin:miter;stroke-miterlimit:4;stroke-opacity:1;stroke-dasharray:none"
       d="m 700.69321,5.1103753 0,30.9133087 c 0,0 -10.09833,4.121775 -12.36531,6.182662 -2.26698,2.060886 -7.007,8.03746 -8.86183,8.03746 -1.8548,0 -5.97657,-3.297421 -8.86181,-2.473067 -2.88522,0.824358 -6.59484,3.503512 -6.59484,5.770485 0,2.266976 3.29744,9.89226 4.74006,11.334882 1.44261,1.442622 4.94613,-2.473067 7.007,-2.679154 2.06089,-0.20609 9.0679,1.648709 8.44965,3.091331 -0.61826,1.442622 -12.7775,5.976572 -13.18968,8.03746 -0.41219,2.060887 0.61826,3.709596 -0.82436,4.121773 -1.44261,0.412178 3.9157,3.297421 3.9157,3.297421 0,0 4.32785,2.473063 7.41918,0.824354 3.09133,-1.648709 13.18968,-17.311453 15.86884,-15.662744 2.67915,1.648712 5.56438,16.899277 7.83136,18.547989 2.26697,1.648709 18.54799,2.88524 17.92974,6.388748 -0.6183,3.50351 -4.12181,8.037461 -2.47308,10.098346 1.64871,2.06088 9.274,-3.503503 9.274,-3.503503 0,0 2.88524,5.564383 8.8618,8.861803 5.97657,3.29742 17.72364,7.00701 17.72364,7.00701 l 0,7.00702 29.05851,0 0,-115.6157625 -84.90857,0.4121778 z"
       id="path3201"
       sodipodi:nodetypes="ccssssssssscssssscsccccc"
       inkscape:connector-curvature="0" />
    <path
       style="fill:#ffffff;fill-opacity:1;fill-rule:evenodd;stroke:#000000;stroke-width:1.60000002;stroke-linecap:butt;stroke-linejoin:miter;stroke-miterlimit:4;stroke-opacity:1;stroke-dasharray:none"
       d="m 597.63481,230.74451 0,7.86924 c 0,0 11.65811,2.62309 19.8188,14.86414 8.16071,12.24104 16.61287,17.4872 17.48724,23.31627 0.87433,5.82907 1.74871,7.57779 6.99485,10.20087 5.24619,2.62309 16.02996,3.49744 16.02996,3.49744 l 0,-59.45651 -60.33085,-0.29145 z"
       id="path4077"
       inkscape:connector-curvature="0" />
    <path
       style="fill:#ffffff;fill-opacity:1;fill-rule:evenodd;stroke:#000000;stroke-width:1.60000002;stroke-linecap:butt;stroke-linejoin:miter;stroke-miterlimit:4;stroke-opacity:1;stroke-dasharray:none"
       d="m 597.92624,238.90521 0,61.62807 83.64715,0 0.17857,-15.66261 c 0,0 -6.59056,7.66197 -10.08798,7.66197 -3.49744,0 -13.40688,-2.04017 -13.40688,-2.04017 0,0 -19.96455,-3.64317 -20.54746,-6.84915 -0.5829,-3.20599 -2.47736,-9.47225 -5.10043,-12.38677 -2.62308,-2.91454 -16.93179,-20.67337 -19.23594,-23.89919 -3.64317,-5.10044 -15.15556,-8.45215 -15.44703,-8.45215 z"
       id="path4079"
       sodipodi:nodetypes="ccccscsssc"
       inkscape:connector-curvature="0" />
    <path
       style="fill:#ffffff;fill-opacity:1;fill-rule:evenodd;stroke:#000000;stroke-width:1.60000002;stroke-linecap:butt;stroke-linejoin:miter;stroke-miterlimit:4;stroke-opacity:1;stroke-dasharray:none"
       d="m 550.12787,231.61887 c 0,0 15.15558,-0.29145 18.65303,0 3.49745,0.29145 9.62832,1.30119 14.87447,3.0499 5.24615,1.74872 14.18548,3.42244 14.18548,3.42244 l 0.0854,85.77269 -47.79837,0 0,-92.24503 z"
       id="path4081"
       sodipodi:nodetypes="csscccc"
       inkscape:connector-curvature="0" />
    <path
       style="fill:#ffffff;fill-opacity:1;fill-rule:evenodd;stroke:#000000;stroke-width:1.60000002;stroke-linecap:butt;stroke-linejoin:miter;stroke-miterlimit:4;stroke-opacity:1;stroke-dasharray:none"
       d="m 338.18317,275.49877 0,62.44488 c 0,0 4.32785,-1.44262 6.38874,1.23654 2.06087,2.67916 5.15222,7.007 5.15222,7.007 l 21.63933,0 0,-33.79853 -7.62529,0 0,-25.96718 -18.54799,0 0,-10.71662 -7.00701,-0.20609 z"
       id="path4083"
       inkscape:connector-curvature="0" />
    <path
       style="fill:#ffffff;fill-opacity:1;fill-rule:evenodd;stroke:#000000;stroke-width:1.60000002;stroke-linecap:butt;stroke-linejoin:miter;stroke-miterlimit:4;stroke-opacity:1;stroke-dasharray:none"
       d="m 694.51057,110.62779 0,10.30444 21.02104,0 0,32.9742 -56.88048,0 c 0,0 -9.48009,-1.64871 -11.95317,-3.7096 -2.47305,-2.06089 -6.59482,-7.00702 -8.65572,-6.59484 -2.06087,0.41217 -5.77046,1.64871 -5.77046,1.64871 l 0,-22.25758 25.55499,0 0,-12.36533 36.6838,0 z"
       id="path4958"
       sodipodi:nodetypes="cccccssccccc"
       inkscape:connector-curvature="0" />
    <path
       style="fill:#ffffff;fill-opacity:1;fill-rule:evenodd;stroke:#000000;stroke-width:1.60000002;stroke-linecap:butt;stroke-linejoin:miter;stroke-miterlimit:4;stroke-opacity:1;stroke-dasharray:none"
       d="m 597.92624,300.11043 83.64715,0 0,30.01971 -22.73339,0 c 0,0 -7.28633,2.62308 -5.82905,5.24615 1.45727,2.62311 5.24615,13.69832 5.24615,13.69832 l -48.08982,0 0,-25.065 -12.5325,0 0.29146,-23.89918 z"
       id="path4962"
       sodipodi:nodetypes="ccccsccccc"
       inkscape:connector-curvature="0" />
    <path
       style="fill:#ffffff;fill-opacity:1;fill-rule:evenodd;stroke:#000000;stroke-width:1.60000002;stroke-linecap:butt;stroke-linejoin:miter;stroke-miterlimit:4;stroke-opacity:1;stroke-dasharray:none"
       d="m 655.76587,331.14272 c -3.29741,2.88526 -3.09134,3.09134 -2.06087,5.97657 1.03044,2.88526 4.94613,11.95316 4.94613,11.95316 l -23.49413,0 0,17.31146 33.18029,0 c 0,0 1.03044,0.61825 1.8548,2.26698 0.82436,1.64868 0,4.53394 0,4.53394 l 17.51756,0 0,-24.12275 7.007,0 0,-12.97322 -13.18968,0 0,-5.7705 -22.66977,0 -3.09133,0.82436 z"
       id="path6710"
       sodipodi:nodetypes="csccccsccccccccc"
       inkscape:connector-curvature="0" />
    <path
       style="fill:#ffffff;fill-opacity:1;fill-rule:evenodd;stroke:#000000;stroke-width:1.60000002;stroke-linecap:butt;stroke-linejoin:miter;stroke-miterlimit:4;stroke-opacity:1;stroke-dasharray:none"
       d="m 345.64828,275.9198 12.53248,0 -0.41218,-12.24105 48.96418,0 0,3.20599 c 0,0 1.74874,4.66326 3.20598,7.86924 1.45727,3.206 -0.29143,13.40686 1.45727,14.86414 1.74874,1.45726 3.49745,4.9547 3.20602,6.99488 -0.29147,2.04016 -0.58294,10.20085 -0.58294,10.20085 l -13.40685,0 c 0,0 -1.45727,1.74874 -2.91455,5.53763 -1.45723,3.78891 -1.16579,5.24618 -1.16579,5.24618 l -25.23572,0 0,-5.24618 -6.70343,0 0,-25.93936 -18.65304,0 -0.29143,-10.49232 z"
       id="path6712"
       sodipodi:nodetypes="cccccsssccsccccccc"
       inkscape:connector-curvature="0" />
    <path
       style="fill:#ffffff;fill-opacity:1;fill-rule:evenodd;stroke:#000000;stroke-width:1.60000002;stroke-linecap:butt;stroke-linejoin:miter;stroke-miterlimit:4;stroke-opacity:1;stroke-dasharray:none"
       d="m 414.02379,303.11468 8.86184,0 c 0,0 3.50351,-5.56442 5.77049,-2.26698 2.26697,3.29741 -1.03047,12.57139 0.20607,16.69316 1.23655,4.12178 7.62529,5.35831 7.62529,5.35831 l 0,13.18969 -9.48009,0 c 0,0 -2.47305,3.70958 -4.74002,12.77749 -2.26698,9.06791 -3.70962,19.37235 -3.70962,19.37235 0,0 -11.54096,-15.04447 -14.63229,-12.77749 -3.09135,2.26697 -0.20609,10.51051 -6.38876,10.51051 -6.18264,0 -8.8618,-7.41918 -13.39575,-7.00703 -4.53395,0.41218 -7.62529,7.41922 -12.57142,6.80093 -4.94613,-0.61826 -21.43322,-19.37232 -21.43322,-19.37232 l 21.22715,0 0,-29.05851 24.9367,0 c 0,0 1.03047,-3.9157 2.88527,-7.21311 1.85479,-3.29742 2.47305,-3.50352 2.47305,-3.50352 l 12.77749,0 -0.41218,-3.50348 z"
       id="path6714"
       inkscape:connector-curvature="0" />
    <path
       style="fill:#ffffff;fill-opacity:1;fill-rule:evenodd;stroke:#000000;stroke-width:1.60000002;stroke-linecap:butt;stroke-linejoin:miter;stroke-miterlimit:4;stroke-opacity:1;stroke-dasharray:none"
       d="m 407.01679,266.84304 85.32074,0 0,33.38638 -26.79153,0 0,35.65336 -19.78454,0 0,-7.00703 -9.27398,0 0,-6.38876 c 0,0 -7.83136,-2.26697 -8.03747,-5.1522 -0.20607,-2.88526 2.67916,-15.04448 0.20611,-16.28102 -2.47309,-1.23654 -5.77049,2.06091 -5.77049,2.06091 l -8.86184,0 c 0,0 1.44265,-5.9766 -0.20607,-9.4801 -1.64872,-3.50351 -2.88524,-4.53395 -2.88524,-7.41919 0,-2.88525 0.20608,-11.12879 -0.82436,-12.36533 -1.03043,-1.23653 -3.09133,-7.62528 -3.09133,-7.00702 z"
       id="path6716"
       inkscape:connector-curvature="0" />
    <path
       style="fill:#ffffff;fill-opacity:1;fill-rule:evenodd;stroke:#000000;stroke-width:1.60000002;stroke-linecap:butt;stroke-linejoin:miter;stroke-miterlimit:4;stroke-opacity:1;stroke-dasharray:none"
       d="m 418.35167,367.20827 c 0,0 3.70959,17.92971 7.21311,21.8454 3.50352,3.91567 19.99061,-1.44264 22.05148,0 2.0609,1.44262 7.62528,7.83136 14.22014,9.27398 6.59483,1.44262 10.51052,3.50352 13.60186,3.09133 3.0913,-0.41218 5.97656,-3.09133 8.44961,-3.50351 2.47309,-0.41218 5.5644,0 5.5644,0 l 0,-25.7611 -5.15221,0 0,-23.28802 -18.54799,0 0,-12.98357 -20.40279,0 0,-7.21311 -8.8618,0 0,7.40609 -9.48009,0 c 0,0 -4.53395,10.93579 -5.97656,16.91236 -1.44262,5.97657 -2.47308,14.22015 -2.67916,14.22015 z"
       id="path6718"
       sodipodi:nodetypes="cssssscccccccccccsc"
       inkscape:connector-curvature="0" />
    <path
       style="fill:#ffffff;fill-opacity:1;fill-rule:evenodd;stroke:#000000;stroke-width:1.60000002;stroke-linecap:butt;stroke-linejoin:miter;stroke-miterlimit:4;stroke-opacity:1;stroke-dasharray:none"
       d="m 465.89782,300.11046 84.21238,-0.29147 0.10306,24.19062 -6.20591,0 0,25.35647 c 0,0 -7.28633,-2.62308 -11.07521,1.16581 -3.78892,3.78891 -10.20088,7.13067 -19.52741,8.8794 -9.32651,1.74872 -28.56244,2.77874 -28.56244,2.77874 l 0,-13.11542 -19.23591,0 0.29144,-48.96415 z"
       id="path7593"
       sodipodi:nodetypes="cccccsscccc"
       inkscape:connector-curvature="0" />
    <path
       style="fill:#ffffff;fill-opacity:1;fill-rule:evenodd;stroke:#000000;stroke-width:1.60000002;stroke-linecap:butt;stroke-linejoin:miter;stroke-miterlimit:4;stroke-opacity:1;stroke-dasharray:none"
       d="m 484.25939,362.19003 0,9.9094 5.53762,0 0,25.64793 c 0,0 13.11541,14.57266 16.90429,13.40685 3.78891,-1.1658 10.49234,-14.86412 13.98979,-12.82395 3.49741,2.04018 7.57776,2.91454 13.11538,3.20598 5.53762,0.29147 10.78377,0 10.78377,0 l 0,-52.75306 c 0,0 -4.66325,-2.62308 -8.7436,-0.5829 -4.08034,2.04017 -7.86922,7.57775 -22.44191,10.4923 -14.57265,2.91455 -29.43678,3.49745 -29.14534,3.49745 z"
       id="path7595"
       inkscape:connector-curvature="0" />
    <path
       style="fill:#ffffff;fill-opacity:1;fill-rule:evenodd;stroke:#000000;stroke-width:1.60000002;stroke-linecap:butt;stroke-linejoin:miter;stroke-miterlimit:4;stroke-opacity:1;stroke-dasharray:none"
       d="m 525.35434,182.36324 72.5719,0 -0.20607,56.04443 c 0,0 -7.95463,-2.70845 -13.20078,-2.9999 -5.24618,-0.29145 -12.82395,-4.66326 -15.44705,-4.08035 -2.62308,0.5829 -43.57229,0 -43.57229,0 l -0.14571,-48.96418 z"
       id="path3189"
       sodipodi:nodetypes="cccsscc"
       inkscape:connector-curvature="0" />
    <path
       style="fill:#ffffff;fill-opacity:1;fill-rule:evenodd;stroke:#000000;stroke-width:1.60000002;stroke-linecap:butt;stroke-linejoin:miter;stroke-miterlimit:4;stroke-opacity:1;stroke-dasharray:none"
       d="m 544.736,400.95334 c 0,0 3.35169,0.87437 3.64316,2.91454 0.29147,2.04017 -1.74871,10.78377 0.87436,12.82395 2.62308,2.04018 15.44704,-1.74874 16.3214,0.5829 0.87434,2.33164 -4.95472,14.86413 -0.87436,18.94447 4.08034,4.08035 11.94957,3.78891 14.57268,1.74874 2.62308,-2.04017 14.86413,-19.5274 18.36157,-17.77866 3.49741,1.7487 12.29102,10.81309 12.29102,10.81309 l 0.20611,-50.15931 -65.5417,0 0.14576,20.11028 z"
       id="path8488"
       sodipodi:nodetypes="csssssscccc"
       inkscape:connector-curvature="0" />
    <path
       style="fill:#ffffff;fill-opacity:1;fill-rule:evenodd;stroke:#000000;stroke-width:1.60000002;stroke-linecap:butt;stroke-linejoin:miter;stroke-miterlimit:4;stroke-opacity:1;stroke-dasharray:none"
       d="m 610.16728,349.07461 25.065,0 0,17.19577 33.22569,0 c 0,0 2.33165,2.33164 2.04018,4.08034 -0.29144,1.74871 -0.87434,2.9307 -0.87434,2.9307 l 11.36667,0 0,21.25992 -4.08034,0 0,14.5727 -66.74286,0.14571 0,-60.18514 z"
       id="path8490"
       sodipodi:nodetypes="ccccsccccccc"
       inkscape:connector-curvature="0" />
    <path
       style="fill:#ffffff;fill-opacity:1;fill-rule:evenodd;stroke:#000000;stroke-width:1.60000002;stroke-linecap:butt;stroke-linejoin:miter;stroke-miterlimit:4;stroke-opacity:1;stroke-dasharray:none"
       d="m 610.22027,431.30186 c 0,0 8.44964,-3.70963 10.71662,-1.23654 2.26698,2.47305 -1.23653,11.33488 3.09131,12.98357 4.32788,1.64872 11.1288,-3.29741 14.63233,-4.9461 3.50348,-1.64872 11.33488,-9.68619 14.42618,-6.80093 3.09134,2.88523 -1.8548,14.01401 -0.61825,16.89927 1.23654,2.88523 5.77049,10.30442 8.65572,9.27398 2.88524,-1.03043 2.47308,-13.18967 5.97657,-16.07491 3.50351,-2.88526 9.48009,-6.18267 9.89227,-9.68619 l 4.94613,-6.38875 0,-8.24355 -4.94613,0 0,-8.03743 -66.77275,0 0,22.25758 z"
       id="path10238"
       sodipodi:nodetypes="csssssssscccccc"
       inkscape:connector-curvature="0" />
    <path
       style="fill:#ffffff;fill-opacity:1;fill-rule:evenodd;stroke:#000000;stroke-width:1.60000002;stroke-linecap:butt;stroke-linejoin:miter;stroke-miterlimit:4;stroke-opacity:1;stroke-dasharray:none"
       d="m 658.65113,218.4122 57.29267,0 0,9.48007 c 0,0 -5.15225,-4.32786 -11.74706,-2.67915 -6.59486,1.64872 -6.80093,3.09133 -6.80093,3.09133 l 0,64.0936 c 0,0 -5.79214,-2.40503 -8.97569,-2.40503 -3.18355,0 -5.8506,-5.85061 -5.8506,-5.85061 0,0 -7.01912,8.25564 -8.56479,8.56477 -1.54567,0.30914 -15.55971,-2.57611 -15.55971,-2.57611 l 0.20611,-71.71887 z"
       id="path11114"
       sodipodi:nodetypes="cccsccscscc"
       inkscape:connector-curvature="0" />
    <path
       style="fill:#ffffff;fill-opacity:1;fill-rule:evenodd;stroke:#000000;stroke-width:1.60000002;stroke-linecap:butt;stroke-linejoin:miter;stroke-miterlimit:4;stroke-opacity:1;stroke-dasharray:none"
       d="m 682.96959,284.1545 c 0,0 2.06089,4.74004 5.77049,5.97657 3.70959,1.23653 8.24355,2.67915 9.48008,3.7096 1.23652,1.03044 3.91567,6.38875 7.21311,6.38875 3.29742,0 7.62526,-7.62529 12.15921,-6.59484 4.53396,1.03044 8.86184,5.35829 11.74707,4.94614 2.88526,-0.41218 10.09834,-7.21312 10.09834,-7.21312 l 0,35.0351 -9.27398,0 0,22.66975 -35.24119,0 0,-12.98359 -13.18968,0 0,-50.90392 1.23655,-1.03044 z"
       id="path11116"
       inkscape:connector-curvature="0" />
    <path
       style="fill:#ffffff;fill-opacity:1;fill-rule:evenodd;stroke:#000000;stroke-width:1.60000002;stroke-linecap:butt;stroke-linejoin:miter;stroke-miterlimit:4;stroke-opacity:1;stroke-dasharray:none"
       d="m 696.72897,227.82998 c 0,0 8.59786,-3.78889 12.0953,-2.91454 3.49745,0.87437 8.30645,4.95471 8.30645,4.95471 0,0 4.95468,-2.04017 9.9094,-5.82906 4.95473,-3.7889 9.03507,-6.70344 9.03507,-6.70344 l 0,46.04965 c 0,0 -4.08034,0.87436 -4.37181,2.33163 -0.29144,1.45727 0,30.89407 0,30.89407 0,0 -1.16581,2.33162 -3.49746,2.04016 -2.3316,-0.29144 -9.03503,-5.82906 -11.36667,-5.53761 -2.33161,0.29146 -9.32649,7.86925 -11.65814,7.28635 -2.33161,-0.58291 -8.45214,-8.45215 -8.45214,-8.45215 l 0,-64.11977 z"
       id="path11118"
       sodipodi:nodetypes="cscsccscssscc"
       inkscape:connector-curvature="0" />
    <rect
       style="fill:#ffffff;fill-opacity:1;stroke:#000000;stroke-width:1.60000002;stroke-linecap:butt;stroke-miterlimit:4;stroke-opacity:1;stroke-dasharray:none;stroke-dashoffset:0"
       id="rect11993"
       width="25.647886"
       height="81.044144"
       x="785.62225"
       y="4.669642" />
    <path
       style="fill:#ffffff;fill-opacity:1;fill-rule:evenodd;stroke:#000000;stroke-width:1.60000002;stroke-linecap:butt;stroke-linejoin:miter;stroke-miterlimit:4;stroke-opacity:1;stroke-dasharray:none"
       d="m 785.62227,85.600696 19.23595,0 0,34.974404 7.57779,0 0,35.55732 -7.86926,0 0,7.57779 -22.73335,0 0,-31.18552 -30.60262,0 0,-11.65814 34.68296,0 -0.29147,-35.265854 z"
       id="path11995"
       inkscape:connector-curvature="0" />
    <path
       style="fill:#ffffff;fill-opacity:1;fill-rule:evenodd;stroke:#000000;stroke-width:1.60000002;stroke-linecap:butt;stroke-linejoin:miter;stroke-miterlimit:4;stroke-opacity:1;stroke-dasharray:none"
       d="m 715.67345,120.86655 35.26586,0 0,11.36669 30.89405,0 0,31.47697 -17.19573,0 0,28.56245 -49.25565,0 0.29147,-71.40611 z"
       id="path11997"
       sodipodi:nodetypes="ccccccccc"
       inkscape:connector-curvature="0" />
    <path
       style="fill:#ffffff;fill-opacity:1;fill-rule:evenodd;stroke:#000000;stroke-width:1.60000002;stroke-linecap:butt;stroke-linejoin:miter;stroke-miterlimit:4;stroke-opacity:1;stroke-dasharray:none"
       d="m 810.9507,4.4921096 36.88987,0 0,53.7891544 -36.88987,0 0,-53.7891544 z"
       id="path12001"
       inkscape:connector-curvature="0" />
    <path
       style="fill:#ffffff;fill-opacity:1;fill-rule:evenodd;stroke:#000000;stroke-width:1.60000002;stroke-linecap:butt;stroke-linejoin:miter;stroke-miterlimit:4;stroke-opacity:1;stroke-dasharray:none"
       d="m 811.36288,58.075177 46.16385,0 0,13.601855 -10.09834,0 0,59.353548 -13.80793,0 c 0,0 1.85479,-4.32787 -2.67916,-7.62528 -4.53395,-3.29743 -18.54799,-2.67916 -18.54799,-2.67916 l -7.83136,0 0,-34.828986 7.21311,0 -0.41218,-27.821977 z"
       id="path12003"
       sodipodi:nodetypes="ccccccsccccc"
       inkscape:connector-curvature="0" />
    <path
       style="fill:#ffffff;fill-opacity:1;fill-rule:evenodd;stroke:#000000;stroke-width:1.60000002;stroke-linecap:butt;stroke-linejoin:miter;stroke-miterlimit:4;stroke-opacity:1;stroke-dasharray:none"
       d="m 736.2209,241.23684 52.7531,0 0,19.52738 c 0,0 -6.84917,2.04017 -9.18078,8.88933 -2.33164,6.84915 0,43.71802 0,43.71802 l -40.51205,0 0,-21.85901 -7.43205,5.97479 c 0,0 -0.87436,-30.89406 0,-32.2056 0.87434,-1.31154 4.08035,-2.18591 4.08035,-2.18591 l 0.29143,-21.859 z"
       id="path12005"
       inkscape:connector-curvature="0" />
    <path
       style="fill:#ffffff;fill-opacity:1;fill-rule:evenodd;stroke:#000000;stroke-width:1.60000002;stroke-linecap:butt;stroke-linejoin:miter;stroke-miterlimit:4;stroke-opacity:1;stroke-dasharray:none"
       d="m 764.58073,163.5926 46.98822,0 0,15.66273 5.97657,0 0,23.70021 -8.8618,-0.20609 c 0,0 -2.88526,3.50351 -4.53395,9.0679 -1.64873,5.56441 -2.26698,16.86392 -2.26698,16.86392 l -25.7611,0 0,-22.6344 -11.95314,0 0.41218,-42.45427 z"
       id="path12007"
       sodipodi:nodetypes="ccccccsccccc"
       inkscape:connector-curvature="0" />
    <path
       style="fill:#ffffff;fill-opacity:1;fill-rule:evenodd;stroke:#000000;stroke-width:1.60000002;stroke-linecap:butt;stroke-linejoin:miter;stroke-miterlimit:4;stroke-opacity:1;stroke-dasharray:none"
       d="m 789.1053,228.71663 0,32.35593 c 0,0 10.51052,-0.82435 11.95313,-3.09133 1.44261,-2.26697 2.67916,-4.12177 2.67916,-4.12177 l 16.89927,0 c 0,0 1.64872,-6.80093 3.50351,-6.80093 1.8548,0 10.92271,0 10.92271,0 0,0 3.09133,-2.06089 4.74002,-3.7096 1.64873,-1.64871 2.88526,-6.18266 4.32788,-6.18266 1.44261,0 5.77046,1.44262 6.38875,0.41217 0.61826,-1.03043 1.44261,-2.88523 2.88523,-3.09132 1.44261,-0.20609 7.41919,-0.20609 7.41919,-0.20609 l 0,-31.32549 -51.11,0 c 0,0 -3.50351,-2.06088 -5.77049,10.30444 -2.26697,12.36532 -2.47305,15.45665 -2.47305,15.45665 l -12.36531,0 z"
       id="path12009"
       sodipodi:nodetypes="ccsccscsssscccscc"
       inkscape:connector-curvature="0" />
    <path
       style="fill:#ffffff;fill-opacity:1;fill-rule:evenodd;stroke:#000000;stroke-width:1.60000002;stroke-linecap:butt;stroke-linejoin:miter;stroke-miterlimit:4;stroke-opacity:1;stroke-dasharray:none"
       d="m 847.41041,4.4735851 46.3411,0.1030445 0,67.0342964 -36.43167,0 0,-13.527582 -9.32653,0 -0.5829,-53.6097589 z"
       id="path12011"
       sodipodi:nodetypes="ccccccc"
       inkscape:connector-curvature="0" />
    <path
       style="fill:#ffffff;fill-opacity:1;fill-rule:evenodd;stroke:#000000;stroke-width:1.60000002;stroke-linecap:butt;stroke-linejoin:miter;stroke-miterlimit:4;stroke-opacity:1;stroke-dasharray:none"
       d="m 893.87226,4.6296673 43.34117,-0.1030434 0,44.0594801 -43.22046,0 -0.12071,-43.9564367 z"
       id="path12013"
       sodipodi:nodetypes="ccccc"
       inkscape:connector-curvature="0" />
    <path
       style="fill:#ffffff;fill-opacity:1;fill-rule:evenodd;stroke:#000000;stroke-width:1.60000002;stroke-linecap:butt;stroke-linejoin:miter;stroke-miterlimit:4;stroke-opacity:1;stroke-dasharray:none"
       d="m 894.04298,48.877559 0,68.783001 52.17016,0 -9.03507,-39.929111 0,-28.85389 -43.13509,0 0,0 z"
       id="path12015"
       inkscape:connector-curvature="0" />
    <path
       style="fill:#ffffff;fill-opacity:1;fill-rule:evenodd;stroke:#000000;stroke-width:1.60000002;stroke-linecap:butt;stroke-linejoin:miter;stroke-miterlimit:4;stroke-opacity:1;stroke-dasharray:none"
       d="m 919.39941,117.95202 0,71.11465 39.63768,0 -12.24105,-71.11465 -27.39663,0 z"
       id="path12017"
       inkscape:connector-curvature="0" />
    <path
       style="fill:#ffffff;fill-opacity:1;fill-rule:evenodd;stroke:#000000;stroke-width:1.60000002;stroke-linecap:butt;stroke-linejoin:miter;stroke-miterlimit:4;stroke-opacity:1;stroke-dasharray:none"
       d="m 883.32687,188.48376 75.41879,0 5.24614,34.39151 c 0,0 -10.20086,15.15557 -12.24104,13.1154 -2.04017,-2.04017 -2.04017,-6.70343 -4.37181,-5.24616 -2.33161,1.45727 -5.24616,8.1607 -7.86924,6.12052 -2.62307,-2.04017 -6.99489,-9.03505 -10.49233,-8.45214 -3.49745,0.5829 -4.95469,3.78889 -7.86924,2.91453 -2.91453,-0.87436 0.87438,-5.53762 -4.08034,-4.66326 -4.95472,0.87436 -6.9949,3.7889 -8.1607,0.87436 -1.1658,-2.91454 -2.33164,-6.70343 -4.95472,-6.12052 -2.62307,0.5829 -7.28632,1.74872 -8.16069,-1.45727 -0.87437,-3.20598 -2.62308,-6.99488 -5.82906,-9.03506 -3.20601,-2.04017 -6.61806,-4.8163 -6.61806,-4.8163 l -0.0177,-17.62561 z"
       id="path12019"
       sodipodi:nodetypes="cccsssssssssscc"
       inkscape:connector-curvature="0" />
    <path
       style="fill:#ffffff;fill-opacity:1;fill-rule:evenodd;stroke:#000000;stroke-width:1.60000002;stroke-linecap:butt;stroke-linejoin:miter;stroke-miterlimit:4;stroke-opacity:1;stroke-dasharray:none"
       d="m 847.73752,130.92753 35.55031,0.30913 0,-13.80794 10.92271,0 0,-45.751688 -46.1639,0 -0.30912,59.250498 z"
       id="path12894"
       sodipodi:nodetypes="ccccccc"
       inkscape:connector-curvature="0" />
    <path
       style="fill:#ffffff;fill-opacity:1;fill-rule:evenodd;stroke:#000000;stroke-width:1.60000002;stroke-linecap:butt;stroke-linejoin:miter;stroke-miterlimit:4;stroke-opacity:1;stroke-dasharray:none"
       d="m 919.10797,117.66056 0,70.8232 -35.84876,0 -0.41218,-22.35655 -14.16052,0.20609 c 0,0 6.39209,-6.57966 4.4471,-7.7026 -1.94499,-1.12293 -9.11034,-3.95554 -7.36163,-9.78461 1.74873,-5.82908 7.93692,-17.72563 7.93692,-17.72563 l 9.55031,0 0,-13.4599 35.84876,0 z"
       id="path12896"
       sodipodi:nodetypes="cccccsscccc"
       inkscape:connector-curvature="0" />
    <path
       style="fill:#ffffff;fill-opacity:1;fill-rule:evenodd;stroke:#000000;stroke-width:1.60000002;stroke-linecap:butt;stroke-linejoin:miter;stroke-miterlimit:4;stroke-opacity:1;stroke-dasharray:none"
       d="m 810.68727,164.00167 14.28122,0 c 0,0 -1.16581,7.28634 3.20597,8.7436 4.37182,1.45727 9.90945,-4.08035 12.53252,-4.08035 2.62308,0 12.53251,0 12.53251,0 l 1.45725,-2.62308 28.271,0 0.29147,39.92913 c 0,0 7.57776,4.66325 8.16069,6.12052 0.5829,1.45726 -11.36671,30.31116 -17.19576,30.01971 -5.82908,-0.29145 -13.69832,-4.66325 -13.69832,-4.66325 l 0,-34.68297 -43.13513,0 0,-23.31628 -6.12052,0 -0.5829,-15.44703 z"
       id="path12898"
       inkscape:connector-curvature="0" />
    <path
       style="fill:#ffffff;fill-opacity:1;fill-rule:evenodd;stroke:#000000;stroke-width:1.60000002;stroke-linecap:butt;stroke-linejoin:miter;stroke-miterlimit:4;stroke-opacity:1;stroke-dasharray:none"
       d="m 812.14454,121.01228 c 0,0 17.77135,-0.62559 20.54014,3.60048 2.76881,4.22608 1.02741,6.45467 1.02741,6.45467 l 39.92914,0 c 0,0 -9.47224,18.21584 -8.01498,20.69318 1.45728,2.47737 8.45218,6.70344 8.01498,7.72353 -0.43718,1.02009 -4.37181,6.70343 -4.37181,6.70343 l -14.64035,0 -1.38383,2.65077 -13.70407,0.10305 c 0,0 -8.47004,6.24006 -11.3417,4.09533 -4.30884,-3.21809 -4.1428,-9.56976 -4.14067,-9.56795 l -19.63777,0.053 0,-7.38938 7.86923,0 -0.14572,-35.12014 z"
       id="path12916"
       sodipodi:nodetypes="csccssccccsccccc"
       inkscape:connector-curvature="0" />
    <path
       style="fill:#ffffff;fill-opacity:1;fill-rule:evenodd;stroke:#000000;stroke-width:1.60000002;stroke-linecap:butt;stroke-linejoin:miter;stroke-miterlimit:4;stroke-opacity:1;stroke-dasharray:none"
       d="m 849.90144,237.99062 c 0,0 1.44265,-2.88524 2.26698,-3.29741 0.82436,-0.41218 8.24358,-0.41218 8.24358,-0.41218 l 0.61825,3.29741 c 0,0 10.30444,5.5644 13.18968,4.53396 2.88523,-1.03044 11.33488,-14.01404 12.98357,-17.51754 1.64872,-3.50351 4.94613,-12.36533 4.94613,-12.36533 0,0 3.70963,9.0679 5.35831,9.68617 1.64873,0.61827 7.21311,-1.44262 8.03748,-0.41218 0.82436,1.03045 3.70958,7.62528 4.53395,7.62528 0.82436,0 8.86179,-3.09132 9.27398,-2.26696 0.41218,0.82435 0.41218,4.53394 1.44261,4.74004 1.03048,0.20609 1.23655,0.20609 1.23655,0.20609 l 0,16.89927 -13.18968,0 0,21.8454 -47.19433,0 0,-12.77749 -11.74706,0 0,-19.78453 z"
       id="path13793"
       sodipodi:nodetypes="csccsscssssscccccccc"
       inkscape:connector-curvature="0" />
    <path
       style="fill:#ffffff;fill-opacity:1;fill-rule:evenodd;stroke:#000000;stroke-width:1.60000002;stroke-linecap:butt;stroke-linejoin:miter;stroke-miterlimit:4;stroke-opacity:1;stroke-dasharray:none"
       d="m 922.16823,232.05605 c 0,0 6.41197,-4.9547 7.86924,-3.78889 1.45726,1.16581 9.47224,9.61796 10.63805,9.47223 1.1658,-0.14573 6.5577,-7.72352 7.57779,-7.43206 1.02009,0.29145 2.33164,5.82907 3.64317,5.68334 1.31155,-0.14572 12.24105,-13.26113 12.24105,-13.26113 l 0,122.833 -54.64753,0 0,-22.71873 -13.98974,0 0,-24.19065 c 0,0 4.66325,-1.45726 5.53758,-4.08034 0.87437,-2.62307 -0.58291,-6.41198 1.74873,-7.86924 2.33161,-1.45727 5.82907,-0.37682 5.82907,-0.37682 l 0,-37.30604 13.98978,-0.20609 -0.43719,-16.75858 z"
       id="path13795"
       sodipodi:nodetypes="cssssccccccsscccc"
       inkscape:connector-curvature="0" />
    <path
       style="fill:#ffffff;fill-opacity:1;fill-rule:evenodd;stroke:#000000;stroke-width:1.60000002;stroke-linecap:butt;stroke-linejoin:miter;stroke-miterlimit:4;stroke-opacity:1;stroke-dasharray:none"
       d="m 861.69163,270.09073 46.92401,0 0,16.32139 c 0,0 -6.12052,-1.74871 -6.70343,0 -0.5829,1.74872 0.29147,8.45215 -1.16581,9.61797 -1.45727,1.16581 -5.53761,2.62307 -5.53761,2.62307 l 0,24.19065 -51.00437,0 0,-46.92401 18.07011,0 -0.5829,-5.82907 z"
       id="path13797"
       inkscape:connector-curvature="0" />
    <path
       style="fill:#ffffff;fill-opacity:1;fill-rule:evenodd;stroke:#000000;stroke-width:1.60000002;stroke-linecap:butt;stroke-linejoin:miter;stroke-miterlimit:4;stroke-opacity:1;stroke-dasharray:none"
       d="m 896.95749,345.57717 67.61722,0 0,118.33011 c 0,0 -11.36668,-5.24616 -20.69321,-7.28633 -9.32651,-2.04018 -8.7436,-7.5778 -14.57265,-7.86924 -5.8291,-0.29146 -9.03507,-2.91454 -13.98979,-8.16069 -4.95469,-5.24619 -6.41196,-5.53763 -10.78377,-5.82909 -4.37178,-0.29143 -8.45214,-6.41196 -12.24105,-8.1607 -3.78888,-1.7487 -6.12052,-2.62308 -6.12052,-2.62308 l 0,-42.26075 10.7838,0 -3e-5,-36.14023 z"
       id="path13799"
       sodipodi:nodetypes="cccssssscccc"
       inkscape:connector-curvature="0" />
    <path
       style="fill:#ffffff;fill-opacity:1;fill-rule:evenodd;stroke:#000000;stroke-width:1.60000002;stroke-linecap:butt;stroke-linejoin:miter;stroke-miterlimit:4;stroke-opacity:1;stroke-dasharray:none"
       d="m 844.49586,322.84381 64.99414,0 0,22.73336 -12.82394,0 0,36.72313 -10.20087,0 0,12.53251 -71.69757,0 0,-48.96418 12.53251,0 0,-10.78377 17.77867,0 -0.58294,-12.24105 z"
       id="path13801"
       inkscape:connector-curvature="0" />
    <path
       style="fill:#ffffff;fill-opacity:1;fill-rule:evenodd;stroke:#000000;stroke-width:1.60000002;stroke-linecap:butt;stroke-linejoin:miter;stroke-miterlimit:4;stroke-opacity:1;stroke-dasharray:none"
       d="m 739.57263,313.51731 40.22059,0 0,32.35132 c 0,0 -5.24619,0.87437 -5.82909,3.49745 -0.5829,2.62307 0,12.53248 0,12.53248 l -44.00946,0 0,-35.84876 9.3265,0 0.29146,-12.53249 z"
       id="path14676"
       inkscape:connector-curvature="0" />
    <path
       style="fill:#ffffff;fill-opacity:1;fill-rule:evenodd;stroke:#000000;stroke-width:1.60000002;stroke-linecap:butt;stroke-linejoin:miter;stroke-miterlimit:4;stroke-opacity:1;stroke-dasharray:none"
       d="m 780.08466,322.84381 21.56754,0 0,12.24102 25.64793,0 0,11.36671 -12.82395,0 0,48.38127 -71.98903,0 0,-32.98267 31.76845,0 c 0,0 -1.74874,-10.44389 0.29143,-13.06696 2.04018,-2.62308 5.53763,-2.62308 5.53763,-2.62308 l 0,-23.31629 z"
       id="path14678"
       sodipodi:nodetypes="ccccccccccscc"
       inkscape:connector-curvature="0" />
    <path
       style="fill:#ffffff;fill-opacity:1;fill-rule:evenodd;stroke:#000000;stroke-width:1.60000002;stroke-linecap:butt;stroke-linejoin:miter;stroke-miterlimit:4;stroke-opacity:1;stroke-dasharray:none"
       d="m 681.11479,373.28786 6.80093,0 0,-24.21541 41.93906,0 0,12.88052 12.57139,0 0,32.76814 c 0,0 -4.84308,6.18265 -11.85008,6.38875 -7.00703,0.20608 -14.42622,-6.90399 -14.42622,-6.90399 l -34.93203,0 -0.10305,-20.91801 z"
       id="path14680"
       inkscape:connector-curvature="0" />
    <path
       style="fill:#ffffff;fill-opacity:1;fill-rule:evenodd;stroke:#000000;stroke-width:1.60000002;stroke-linecap:butt;stroke-linejoin:miter;stroke-miterlimit:4;stroke-opacity:1;stroke-dasharray:none"
       d="m 677.19909,394.41195 39.15689,0 c 0,0 4.12176,3.50352 6.18263,4.74006 2.06091,1.23654 3.81265,1.64869 3.81265,1.64869 0,0 1.95785,9.27401 -1.95785,12.57142 -3.91567,3.29742 -5.1522,4.74006 -4.12177,6.80093 1.03044,2.0609 3.29742,5.35832 3.29742,5.35832 l -4.74003,5.56438 c 0,0 -6.80093,-2.47305 -8.24355,0 -1.44261,2.47309 0,11.33489 -6.18267,10.30445 -6.18265,-1.03043 -8.8618,-4.94613 -12.15921,-4.94613 -3.29745,0 -5.56442,-7.21311 -7.00703,-8.44965 -1.44262,-1.23651 -3.50353,-2.67916 -3.50353,-2.67916 l 0,-8.03744 -4.53395,0 0,-22.87587 z"
       id="path14682"
       sodipodi:nodetypes="ccscssccsssscccc"
       inkscape:connector-curvature="0" />
    <path
       style="fill:#ffffff;fill-opacity:1;fill-rule:evenodd;stroke:#000000;stroke-width:1.60000002;stroke-linecap:butt;stroke-linejoin:miter;stroke-miterlimit:4;stroke-opacity:1;stroke-dasharray:none"
       d="m 726.45722,400.37044 c 0,0 4.08035,1.89445 6.70342,0.87436 2.62308,-1.02009 9.61798,-6.70346 9.61798,-6.70346 l 49.69284,0 c 0,0 2.76879,1.74875 3.93459,5.8291 1.16584,4.08034 0,24.04491 0,24.04491 0,0 14.86412,7.86922 13.26113,10.92948 -1.60299,3.06027 -5.53762,2.18593 -7.28633,1.16584 -1.7487,-1.02008 -3.93463,-2.47736 -3.93463,-2.47736 0,0 -13.84403,0.43719 -18.21581,3.35169 -4.37182,2.91455 -10.49234,16.61287 -12.67824,16.46715 -2.18591,-0.14575 -5.82908,-3.49745 -8.30644,-3.49745 -2.47733,0 -3.93461,10.49232 -7.28633,9.32651 -3.3517,-1.1658 -11.80386,-11.22096 -11.80386,-11.22096 0,0 -4.22607,0.87437 -6.84914,-0.29143 -2.62311,-1.16585 -8.1607,-5.68337 -9.76373,-5.53763 -1.60298,0.14572 -2.76879,-0.72865 -2.76879,-2.91455 0,-2.18588 -1.45727,-9.03506 -1.45727,-9.03506 l 4.51753,-5.10044 c 0,0 -4.51753,-5.82905 -4.08034,-6.99486 0.43718,-1.16583 5.24615,-4.95472 6.26624,-6.99489 1.02008,-2.04017 0.5829,-11.36668 0.43718,-11.22095 z"
       id="path14684"
       inkscape:connector-curvature="0" />
    <path
       style="fill:#ffffff;fill-opacity:1;fill-rule:evenodd;stroke:#000000;stroke-width:1.60000002;stroke-linecap:butt;stroke-linejoin:miter;stroke-miterlimit:4;stroke-opacity:1;stroke-dasharray:none"
       d="m 793.20007,394.83281 93.26512,0 0,25.35647 c 0,0 -2.04017,-1.16584 -5.24616,1.16581 -3.20601,2.33163 -4.66328,10.20086 -10.20087,11.36667 -5.53762,1.16583 -10.20087,5.53762 -12.82398,4.66324 -2.62308,-0.87433 -10.78377,-2.04017 -11.94958,-3.20597 -1.1658,-1.16581 -2.91454,-7.5778 -7.57779,-7.5778 -4.66325,0 -14.57269,1.45728 -17.19577,4.66325 -2.62308,3.20602 -4.66325,5.8291 -6.70342,5.8291 -2.04018,0 -4.66326,-1.45728 -4.66326,-1.45728 0,0 -1.7487,-4.37182 -6.70342,-6.9949 -4.95472,-2.62307 -7.28633,-4.08034 -7.28633,-4.08034 0,0 2.04018,-19.52737 0.87434,-22.44192 -1.1658,-2.91451 -3.49744,-6.99486 -3.78888,-7.28633 z"
       id="path14686"
       inkscape:connector-curvature="0" />
  </g>
  <g
     inkscape:label="Layer 2"
     inkscape:groupmode="layer"
     id="layer2">
     <defs>
    <filter id="glow">
    <feColorMatrix type="matrix"   
        values=
            "0 0 0 0 0
             0 0 0 0 0 
             0 0 0 0 0 
             0 0 0 1   0"/>
            <feGaussianBlur stdDeviation="3.5" result="coloredBlur"/>
            <feMerge>
                <feMergeNode in="coloredBlur"/>
                <feMergeNode in="SourceGraphic"/>
            </feMerge>
        </filter>
  </defs>
    <text
       id="guymon"
       x="150"
       y="40"
       font-size="14px"
       style="font-size:14px;fill:#ffffff;filter:url(#glow);font-family:sans-serif">Guymon</text>
    <text
       id="guymon-temp"
       x="164.09137"
       y="55"
       font-size="14px"
       style="font-size:14px;fill:#ffffff;filter:url(#glow);font-family:sans-serif">99</text>
    <text
       x="793"
       y="100.14286"
       font-size="14px"
       id="text3211"
       style="font-size:14px;fill:#ffffff;filter:url(#glow);font-family:sans-serif">Tulsa</text>
    <text
       id="Tulsa-temp"
       x="797.04059"
       y="113.58884"
       font-size="14px"
       style="font-size:14px;fill:#ffffff;filter:url(#glow);font-family:sans-serif">99</text>
    <text
       x="579.42859"
       y="201.71428"
       font-size="14px"
       id="text3213"
       style="font-size:14px;fill:#ffffff;filter:url(#glow);font-family:sans-serif">Oklahoma City</text>
    <text
       id="Oklahoma-temp"
       x="619.40613"
       y="216.6244"
       font-size="14px"
       style="font-size:14px;fill:#ffffff;filter:url(#glow);font-family:sans-serif">99</text>
    <text
       x="498.43475"
       y="311.80496"
       font-size="14px"
       id="text3215"
       style="font-size:14px;fill:#ffffff;filter:url(#glow);font-family:sans-serif">Lawton</text>
    <text
       id="Lawton-temp"
       x="513.15228"
       y="325.72089"
       font-size="14px"
       style="font-size:14px;fill:#ffffff;filter:url(#glow);font-family:sans-serif">99</text>
    <text
       x="640.85712"
       y="404.42856"
       font-size="14px"
       id="text3217"
       style="font-size:14px;fill:#ffffff;filter:url(#glow);font-family:sans-serif">Ardmore</text>
    <text
       id="Ardmore-temp"
       x="658.18274"
       y="421.68536"
       font-size="14px"
       style="font-size:14px;fill:#ffffff;filter:url(#glow);font-family:sans-serif">99</text>
    <text
       x="875.57147"
       y="389"
       font-size="14px"
       id="text3219"
       style="font-size:14px;fill:#ffffff;filter:url(#glow);font-family:sans-serif">Broken Bow</text>
    <text
       id="Broken-temp"
       x="906.31476"
       y="405.52292"
       font-size="14px"
       style="font-size:14px;fill:#ffffff;filter:url(#glow);font-family:sans-serif">99</text>
    <text
       x="507.14285"
       y="95.14286"
       font-size="14px"
       id="text3221"
       style="font-size:14px;fill:#ffffff;filter:url(#glow);font-family:sans-serif">Enid</text>
    <text
       id="Enid-temp"
       x="513.06091"
       y="108.53809"
       font-size="14px"
       style="font-size:14px;fill:#ffffff;filter:url(#glow);font-family:sans-serif">99</text>
    <text
       x="815.14288"
       y="193"
       font-size="14px"
       id="text3223"
       style="font-size:14px;fill:#ffffff;filter:url(#glow);font-family:sans-serif">Muskogee</text>
    <text
       id="Muskogee-temp"
       x="836.2132"
       y="207.53304"
       font-size="14px"
       style="font-size:14px;fill:#ffffff;filter:url(#glow);font-family:sans-serif">99</text>
    <text
       x="603.63531"
       y="250.5685"
       font-size="14px"
       id="text3327"
       style="font-size:14px;fill:#ffffff; filter:url(#glow);font-family:sans-serif">Norman</text>
    <text
       id="Norman-temp"
       x="618.0202"
       y="264.52289"
       font-size="14px"
       style="font-size:14px; fill:#ffffff; stroke:#00000000; stroke-width:2px; filter:url(#glow); font-family:sans-serif">99</text>
    <text
       xml:space="preserve"
       style="font-size:14px;fill:#ffffff;filter:url(#glow);font-family:sans-serif"
       x="384.36304"
       y="189.44284"
       id="text3235"
       sodipodi:linespacing="125%"><tspan
         sodipodi:role="line"
         id="tspan3237"
         x="384.36304"
         y="189.44284">Elk City</tspan></text>
    <text
       id="Elk-temp"
       x="398.0202"
       y="203.91884"
       font-size="14px"
       style="font-size:14px;fill:#ffffff;filter:url(#glow);font-family:sans-serif">99</text>
  </g>
</svg>
